<svg width="1307" height="1023" viewBox="0 0 1307 1023" fill="none" xmlns="http://www.w3.org/2000/svg">
<rect width="1307" height="1023" fill="white"/>
<g filter="url(#filter0_d)">
<path d="M341.192 755.595C339.311 756.041 338.148 757.927 338.595 759.808L345.867 790.457C346.313 792.338 348.2 793.501 350.081 793.054C351.961 792.608 353.124 790.722 352.678 788.841L346.214 761.597L373.457 755.133C375.338 754.687 376.501 752.8 376.054 750.919C375.608 749.039 373.722 747.876 371.841 748.322L341.192 755.595ZM489.837 846.021L343.837 756.021L340.163 761.979L486.163 851.979L489.837 846.021Z" fill="#00FFB2"/>
</g>
<g filter="url(#filter1_d)">
<path d="M496.863 167.608C498.737 168.085 499.869 169.99 499.392 171.863L491.621 202.39C491.145 204.263 489.239 205.395 487.366 204.918C485.493 204.442 484.361 202.536 484.838 200.663L491.745 173.528L464.61 166.621C462.737 166.145 461.605 164.239 462.082 162.366C462.558 160.493 464.464 159.361 466.337 159.838L496.863 167.608ZM356.212 249.991L494.212 167.991L497.788 174.009L359.788 256.009L356.212 249.991Z" fill="#00FFB2" fill-opacity="0.27"/>
</g>
<g filter="url(#filter2_d)">
<path d="M170.525 433.525C171.892 432.158 174.108 432.158 175.475 433.525L197.749 455.799C199.116 457.166 199.116 459.382 197.749 460.749C196.382 462.116 194.166 462.116 192.799 460.749L173 440.95L153.201 460.749C151.834 462.116 149.618 462.116 148.251 460.749C146.884 459.382 146.884 457.166 148.251 455.799L170.525 433.525ZM169.5 584V436H176.5V584H169.5Z" fill="#00FFB2"/>
</g>
<g filter="url(#filter3_d)">
<path d="M826.137 844.392C824.263 843.915 823.131 842.01 823.608 840.137L831.379 809.61C831.855 807.737 833.761 806.605 835.634 807.082C837.507 807.558 838.639 809.464 838.162 811.337L831.255 838.472L858.39 845.379C860.263 845.855 861.395 847.761 860.918 849.634C860.442 851.507 858.536 852.639 856.663 852.162L826.137 844.392ZM966.788 762.009L828.788 844.009L825.212 837.991L963.212 755.991L966.788 762.009Z" fill="#00FFB2"/>
</g>
<g filter="url(#filter4_d)">
<path d="M1131.53 584.475C1132.89 585.842 1135.11 585.842 1136.47 584.475L1158.75 562.201C1160.12 560.834 1160.12 558.618 1158.75 557.251C1157.38 555.884 1155.17 555.884 1153.8 557.251L1134 577.05L1114.2 557.251C1112.83 555.884 1110.62 555.884 1109.25 557.251C1107.88 558.618 1107.88 560.834 1109.25 562.201L1131.53 584.475ZM1130.5 434V582H1137.5V434H1130.5Z" fill="#00FFB2"/>
</g>
<g filter="url(#filter5_d)">
<path d="M965.863 256.392C967.737 255.915 968.869 254.01 968.392 252.137L960.621 221.61C960.145 219.737 958.239 218.605 956.366 219.082C954.493 219.558 953.361 221.464 953.838 223.337L960.745 250.472L933.61 257.379C931.737 257.855 930.605 259.761 931.082 261.634C931.558 263.507 933.464 264.639 935.337 264.162L965.863 256.392ZM825.212 174.009L963.212 256.009L966.788 249.991L828.788 167.991L825.212 174.009Z" fill="#00FFB2"/>
</g>
<g filter="url(#filter6_d)">
<path d="M20.5 286C20.5 268.051 35.0507 253.5 53 253.5H325C342.949 253.5 357.5 268.051 357.5 286V391C357.5 408.949 342.949 423.5 325 423.5H53C35.0507 423.5 20.5 408.949 20.5 391V286Z" fill="#F8D1C7" stroke="white"/>
<g filter="url(#filter7_d)">
<path d="M107.314 334.822C106.998 334.705 106.629 334.582 106.207 334.453C105.797 334.312 105.346 334.189 104.854 334.084C104.373 333.967 103.869 333.873 103.342 333.803C102.814 333.721 102.287 333.68 101.76 333.68C101.033 333.68 100.342 333.756 99.6855 333.908C99.041 334.061 98.4609 334.359 97.9453 334.805C97.4414 335.25 97.0195 335.883 96.6797 336.703C96.3516 337.523 96.1465 338.602 96.0645 339.938C96.498 339.738 96.9492 339.568 97.418 339.428C97.8984 339.287 98.3848 339.17 98.877 339.076C99.3691 338.982 99.8496 338.918 100.318 338.883C100.799 338.836 101.256 338.812 101.689 338.812C102.744 338.812 103.746 338.971 104.695 339.287C105.645 339.604 106.477 340.072 107.191 340.693C107.918 341.303 108.492 342.064 108.914 342.979C109.348 343.893 109.564 344.941 109.564 346.125C109.564 346.816 109.506 347.502 109.389 348.182C109.283 348.861 109.09 349.512 108.809 350.133C108.527 350.754 108.152 351.334 107.684 351.873C107.227 352.4 106.646 352.863 105.943 353.262C105.252 353.648 104.426 353.953 103.465 354.176C102.504 354.398 101.391 354.51 100.125 354.51C98.5312 354.51 97.1426 354.352 95.959 354.035C94.7871 353.719 93.7793 353.279 92.9355 352.717C92.0918 352.143 91.4004 351.463 90.8613 350.678C90.3223 349.881 89.8945 349.008 89.5781 348.059C89.2617 347.109 89.0449 346.096 88.9277 345.018C88.8105 343.928 88.752 342.809 88.752 341.66C88.752 339.809 89.0039 338.092 89.5078 336.51C90.0234 334.916 90.7852 333.539 91.793 332.379C92.8125 331.219 94.084 330.311 95.6074 329.654C97.1309 328.998 98.9062 328.67 100.934 328.67C101.965 328.67 103.055 328.758 104.203 328.934C105.352 329.109 106.576 329.402 107.877 329.812L107.314 334.822ZM96.0645 343.84C96.0645 345.129 96.1816 346.148 96.416 346.898C96.6504 347.648 96.9551 348.217 97.3301 348.604C97.7168 348.99 98.1562 349.236 98.6484 349.342C99.1406 349.447 99.6445 349.5 100.16 349.5C100.676 349.5 101.133 349.412 101.531 349.236C101.93 349.061 102.264 348.832 102.533 348.551C102.814 348.258 103.025 347.93 103.166 347.566C103.307 347.191 103.377 346.811 103.377 346.424C103.377 346.131 103.342 345.803 103.271 345.439C103.213 345.064 103.061 344.713 102.814 344.385C102.58 344.057 102.223 343.787 101.742 343.576C101.273 343.354 100.635 343.242 99.8262 343.242C99.334 343.242 98.7773 343.289 98.1562 343.383C97.5469 343.477 96.8496 343.629 96.0645 343.84ZM119.338 354.51C118.553 354.51 117.896 354.398 117.369 354.176C116.854 353.953 116.414 353.66 116.051 353.297C115.688 352.922 115.406 352.5 115.207 352.031C115.02 351.551 114.926 351.064 114.926 350.572C114.926 350.104 115.025 349.635 115.225 349.166C115.424 348.697 115.711 348.275 116.086 347.9C116.461 347.525 116.906 347.221 117.422 346.986C117.949 346.752 118.594 346.635 119.355 346.635C120.141 346.635 120.809 346.752 121.359 346.986C121.91 347.221 122.379 347.525 122.766 347.9C123.164 348.275 123.469 348.697 123.68 349.166C123.891 349.623 123.996 350.086 123.996 350.555C123.996 351.059 123.891 351.551 123.68 352.031C123.48 352.5 123.188 352.922 122.801 353.297C122.426 353.66 121.957 353.953 121.395 354.176C120.844 354.398 120.158 354.51 119.338 354.51ZM143.139 329.145H160.576V333.75H151.014V339.006H159.451V343.506H151.014V348.938H160.576V354H143.139V329.145ZM146.936 326.982L148.623 315.838H156.498L151.998 326.982H146.936ZM163.846 335.033H172.371L175.658 349.236L179.332 335.033H185.783L179.719 354H170.104L163.846 335.033ZM193.605 354.51C192.855 354.51 192.135 354.404 191.443 354.193C190.764 353.982 190.16 353.66 189.633 353.227C189.105 352.793 188.684 352.248 188.367 351.592C188.062 350.924 187.91 350.139 187.91 349.236C187.91 348.369 188.051 347.619 188.332 346.986C188.613 346.342 188.988 345.791 189.457 345.334C189.938 344.877 190.494 344.502 191.127 344.209C191.771 343.904 192.451 343.67 193.166 343.506C193.881 343.33 194.613 343.213 195.363 343.154C196.125 343.084 196.863 343.049 197.578 343.049C198.07 343.049 198.545 343.061 199.002 343.084C199.459 343.107 199.887 343.137 200.285 343.172C200.262 342.434 200.121 341.824 199.863 341.344C199.605 340.852 199.266 340.465 198.844 340.184C198.422 339.891 197.93 339.686 197.367 339.568C196.805 339.451 196.213 339.393 195.592 339.393C195.018 339.393 194.426 339.434 193.816 339.516C193.219 339.586 192.633 339.68 192.059 339.797C191.484 339.902 190.934 340.02 190.406 340.148C189.891 340.277 189.434 340.395 189.035 340.5V335.578C189.609 335.449 190.225 335.326 190.881 335.209C191.549 335.08 192.24 334.969 192.955 334.875C193.67 334.781 194.396 334.705 195.135 334.646C195.885 334.588 196.623 334.559 197.35 334.559C198.252 334.559 199.137 334.617 200.004 334.734C200.883 334.84 201.709 335.021 202.482 335.279C203.268 335.537 203.988 335.883 204.645 336.316C205.312 336.75 205.881 337.289 206.35 337.934C206.83 338.566 207.205 339.316 207.475 340.184C207.744 341.051 207.879 342.053 207.879 343.189V354H200.637V350.854C200.355 351.428 199.963 351.943 199.459 352.4C198.955 352.846 198.387 353.227 197.754 353.543C197.121 353.859 196.447 354.1 195.732 354.264C195.018 354.428 194.309 354.51 193.605 354.51ZM196.576 350.379C196.904 350.379 197.279 350.291 197.701 350.115C198.135 349.928 198.539 349.646 198.914 349.271C199.301 348.896 199.623 348.422 199.881 347.848C200.15 347.273 200.285 346.588 200.285 345.791H199.705C199.143 345.791 198.562 345.85 197.965 345.967C197.379 346.084 196.84 346.26 196.348 346.494C195.855 346.729 195.451 347.016 195.135 347.355C194.818 347.695 194.66 348.088 194.66 348.533C194.66 348.885 194.719 349.178 194.836 349.412C194.953 349.646 195.1 349.84 195.275 349.992C195.463 350.133 195.668 350.232 195.891 350.291C196.125 350.35 196.354 350.379 196.576 350.379ZM212.977 327H220.57V354H212.977V327ZM247.236 354H239.66L239.818 352.787C239.865 352.412 239.906 351.99 239.941 351.521C239.977 351.053 240.006 350.566 240.029 350.062C239.678 350.754 239.232 351.375 238.693 351.926C238.166 352.465 237.58 352.928 236.936 353.314C236.291 353.701 235.605 353.994 234.879 354.193C234.152 354.404 233.42 354.51 232.682 354.51C231.768 354.51 230.9 354.357 230.08 354.053C229.26 353.76 228.533 353.291 227.9 352.646C227.279 351.99 226.781 351.152 226.406 350.133C226.043 349.102 225.861 347.859 225.861 346.406V335.033H233.455V345.703C233.455 346.43 233.52 347.039 233.648 347.531C233.789 348.023 233.977 348.422 234.211 348.727C234.445 349.031 234.715 349.254 235.02 349.395C235.324 349.523 235.646 349.588 235.986 349.588C236.385 349.588 236.783 349.506 237.182 349.342C237.592 349.178 237.961 348.955 238.289 348.674C238.629 348.393 238.916 348.064 239.15 347.689C239.396 347.303 239.561 346.893 239.643 346.459V335.033H247.236V354ZM270.316 353.244C269.215 353.607 268.025 353.906 266.748 354.141C265.471 354.387 264.141 354.51 262.758 354.51C261.246 354.51 259.805 354.311 258.434 353.912C257.062 353.514 255.855 352.893 254.812 352.049C253.77 351.205 252.938 350.139 252.316 348.85C251.707 347.549 251.402 346.002 251.402 344.209C251.402 343.189 251.561 342.246 251.877 341.379C252.193 340.5 252.621 339.703 253.16 338.988C253.711 338.273 254.35 337.641 255.076 337.09C255.814 336.539 256.6 336.076 257.432 335.701C258.275 335.326 259.143 335.045 260.033 334.857C260.924 334.658 261.797 334.559 262.652 334.559C264 334.559 265.189 334.711 266.221 335.016C267.252 335.309 268.107 335.707 268.787 336.211C269.479 336.715 270 337.301 270.352 337.969C270.703 338.637 270.879 339.346 270.879 340.096C270.879 341.01 270.721 341.789 270.404 342.434C270.1 343.078 269.684 343.623 269.156 344.068C268.641 344.502 268.037 344.848 267.346 345.105C266.666 345.352 265.945 345.545 265.184 345.686C264.422 345.814 263.643 345.896 262.846 345.932C262.061 345.967 261.311 345.984 260.596 345.984C260.35 345.984 260.109 345.984 259.875 345.984C259.652 345.973 259.43 345.967 259.207 345.967C259.301 346.635 259.482 347.197 259.752 347.654C260.033 348.111 260.379 348.486 260.789 348.779C261.211 349.061 261.691 349.266 262.23 349.395C262.781 349.512 263.367 349.57 263.988 349.57C264.457 349.57 264.955 349.535 265.482 349.465C266.021 349.395 266.561 349.301 267.1 349.184C267.65 349.055 268.195 348.914 268.734 348.762C269.285 348.598 269.812 348.428 270.316 348.252V353.244ZM259.049 343.26C259.33 343.248 259.688 343.23 260.121 343.207C260.566 343.184 261.035 343.143 261.527 343.084C262.02 343.025 262.512 342.943 263.004 342.838C263.496 342.732 263.941 342.598 264.34 342.434C264.738 342.27 265.061 342.064 265.307 341.818C265.553 341.572 265.676 341.273 265.676 340.922C265.676 340.324 265.436 339.85 264.955 339.498C264.486 339.135 263.83 338.953 262.986 338.953C262.6 338.953 262.184 339.012 261.738 339.129C261.293 339.234 260.877 339.445 260.49 339.762C260.104 340.078 259.775 340.518 259.506 341.08C259.236 341.643 259.084 342.369 259.049 343.26ZM275.555 335.033H282.779C282.756 335.338 282.738 335.678 282.727 336.053C282.715 336.416 282.709 336.803 282.709 337.213C282.709 337.611 282.709 338.016 282.709 338.426C282.709 338.836 282.709 339.229 282.709 339.604C282.943 339.029 283.248 338.443 283.623 337.846C283.998 337.236 284.438 336.691 284.941 336.211C285.457 335.73 286.037 335.338 286.682 335.033C287.338 334.717 288.07 334.559 288.879 334.559C289.031 334.559 289.195 334.57 289.371 334.594C289.559 334.605 289.74 334.629 289.916 334.664C290.092 334.699 290.256 334.746 290.408 334.805C290.572 334.852 290.707 334.91 290.812 334.98L290.197 342.223C289.67 342.023 289.113 341.877 288.527 341.783C287.941 341.678 287.432 341.625 286.998 341.625C286.4 341.625 285.873 341.701 285.416 341.854C284.971 341.994 284.59 342.182 284.273 342.416C283.957 342.65 283.705 342.908 283.518 343.189C283.342 343.471 283.219 343.746 283.148 344.016V354H275.555V335.033Z" fill="white"/>
</g>
</g>
<g filter="url(#filter8_d)">
<path d="M4.5 621C4.5 603.051 19.0507 588.5 37 588.5H309C326.949 588.5 341.5 603.051 341.5 621V726C341.5 743.949 326.949 758.5 309 758.5H37C19.0507 758.5 4.5 743.949 4.5 726V621Z" fill="#F8C7D6" stroke="white"/>
<g filter="url(#filter9_d)">
<path d="M52.3613 677.715L54.0488 664.145H70.3613L69.7988 669.277H59.6738L58.5488 674.375C58.9473 674.012 59.3867 673.719 59.8672 673.496C60.3594 673.273 60.8574 673.104 61.3613 672.986C61.877 672.857 62.3809 672.775 62.873 672.74C63.3652 672.705 63.8223 672.688 64.2441 672.688C65.2871 672.688 66.3008 672.875 67.2852 673.25C68.2695 673.625 69.1367 674.158 69.8867 674.85C70.6484 675.529 71.2578 676.355 71.7148 677.328C72.1719 678.289 72.4004 679.361 72.4004 680.545C72.4004 681.916 72.1777 683.158 71.7324 684.271C71.2871 685.373 70.6309 686.316 69.7637 687.102C68.8965 687.875 67.8242 688.473 66.5469 688.895C65.2695 689.316 63.8047 689.527 62.1523 689.527C60.4414 689.527 58.9707 689.334 57.7402 688.947C56.5215 688.561 55.502 688.033 54.6816 687.365C53.8613 686.697 53.2168 685.912 52.748 685.01C52.291 684.096 51.9746 683.111 51.7988 682.057H59.1113C59.2051 682.479 59.3457 682.842 59.5332 683.146C59.7324 683.451 59.9551 683.703 60.2012 683.902C60.459 684.102 60.7344 684.254 61.0273 684.359C61.332 684.453 61.6426 684.5 61.959 684.5C62.3691 684.5 62.7734 684.424 63.1719 684.271C63.5703 684.119 63.9277 683.896 64.2441 683.604C64.5605 683.299 64.8125 682.93 65 682.496C65.1992 682.062 65.2988 681.57 65.2988 681.02C65.2988 680.574 65.2402 680.146 65.123 679.736C65.0059 679.314 64.8125 678.945 64.543 678.629C64.2852 678.312 63.9512 678.061 63.541 677.873C63.1309 677.674 62.6387 677.574 62.0645 677.574C61.7598 677.574 61.4434 677.604 61.1152 677.662C60.7871 677.721 60.459 677.809 60.1309 677.926C59.8145 678.043 59.5156 678.184 59.2344 678.348C58.9531 678.5 58.7129 678.676 58.5137 678.875L52.3613 677.715ZM82.3496 689.51C81.5645 689.51 80.9082 689.398 80.3809 689.176C79.8652 688.953 79.4258 688.66 79.0625 688.297C78.6992 687.922 78.418 687.5 78.2188 687.031C78.0312 686.551 77.9375 686.064 77.9375 685.572C77.9375 685.104 78.0371 684.635 78.2363 684.166C78.4355 683.697 78.7227 683.275 79.0977 682.9C79.4727 682.525 79.918 682.221 80.4336 681.986C80.9609 681.752 81.6055 681.635 82.3672 681.635C83.1523 681.635 83.8203 681.752 84.3711 681.986C84.9219 682.221 85.3906 682.525 85.7773 682.9C86.1758 683.275 86.4805 683.697 86.6914 684.166C86.9023 684.623 87.0078 685.086 87.0078 685.555C87.0078 686.059 86.9023 686.551 86.6914 687.031C86.4922 687.5 86.1992 687.922 85.8125 688.297C85.4375 688.66 84.9688 688.953 84.4062 689.176C83.8555 689.398 83.1699 689.51 82.3496 689.51ZM104.762 676.625C104.762 674.621 105.119 672.822 105.834 671.229C106.561 669.623 107.539 668.264 108.77 667.15C110 666.025 111.43 665.164 113.059 664.566C114.688 663.969 116.416 663.67 118.244 663.67C119.521 663.67 120.822 663.793 122.146 664.039C123.471 664.285 124.789 664.73 126.102 665.375L125.012 671C123.98 670.438 122.961 670.016 121.953 669.734C120.945 669.453 120.02 669.312 119.176 669.312C118.156 669.312 117.242 669.482 116.434 669.822C115.625 670.15 114.939 670.631 114.377 671.264C113.814 671.896 113.381 672.664 113.076 673.566C112.783 674.469 112.637 675.488 112.637 676.625C112.637 677.762 112.783 678.781 113.076 679.684C113.381 680.586 113.814 681.354 114.377 681.986C114.939 682.619 115.625 683.105 116.434 683.445C117.242 683.773 118.156 683.938 119.176 683.938C120.02 683.938 120.945 683.797 121.953 683.516C122.961 683.234 123.98 682.812 125.012 682.25L126.102 687.875C124.789 688.508 123.471 688.936 122.146 689.158C120.822 689.393 119.521 689.51 118.244 689.51C116.416 689.51 114.688 689.217 113.059 688.631C111.43 688.033 110 687.184 108.77 686.082C107.539 684.969 106.561 683.615 105.834 682.021C105.119 680.428 104.762 678.629 104.762 676.625ZM140.621 689.51C139.238 689.51 138.008 689.381 136.93 689.123C135.852 688.865 134.908 688.508 134.1 688.051C133.291 687.594 132.6 687.055 132.025 686.434C131.463 685.801 131.006 685.115 130.654 684.377C130.303 683.639 130.045 682.859 129.881 682.039C129.729 681.219 129.652 680.387 129.652 679.543C129.652 678.711 129.729 677.891 129.881 677.082C130.045 676.262 130.303 675.482 130.654 674.744C131.006 673.994 131.463 673.309 132.025 672.688C132.588 672.055 133.273 671.51 134.082 671.053C134.902 670.584 135.852 670.221 136.93 669.963C138.008 669.693 139.238 669.559 140.621 669.559C142.004 669.559 143.234 669.693 144.312 669.963C145.391 670.221 146.334 670.584 147.143 671.053C147.963 671.51 148.654 672.055 149.217 672.688C149.779 673.309 150.236 673.994 150.588 674.744C150.939 675.482 151.191 676.262 151.344 677.082C151.508 677.891 151.59 678.711 151.59 679.543C151.59 680.387 151.508 681.219 151.344 682.039C151.191 682.859 150.939 683.639 150.588 684.377C150.236 685.115 149.773 685.801 149.199 686.434C148.637 687.055 147.951 687.594 147.143 688.051C146.334 688.508 145.391 688.865 144.312 689.123C143.234 689.381 142.004 689.51 140.621 689.51ZM137.246 679.543C137.246 680.176 137.305 680.797 137.422 681.406C137.539 682.004 137.727 682.543 137.984 683.023C138.254 683.492 138.6 683.873 139.021 684.166C139.455 684.447 139.988 684.588 140.621 684.588C141.254 684.588 141.781 684.447 142.203 684.166C142.637 683.873 142.982 683.492 143.24 683.023C143.51 682.543 143.703 682.004 143.82 681.406C143.938 680.797 143.996 680.176 143.996 679.543C143.996 678.91 143.938 678.295 143.82 677.697C143.703 677.088 143.51 676.549 143.24 676.08C142.982 675.6 142.637 675.213 142.203 674.92C141.781 674.627 141.254 674.48 140.621 674.48C139.988 674.48 139.455 674.627 139.021 674.92C138.6 675.213 138.254 675.6 137.984 676.08C137.727 676.549 137.539 677.088 137.422 677.697C137.305 678.295 137.246 678.91 137.246 679.543ZM155.738 670.033H163.332C163.262 670.432 163.191 670.947 163.121 671.58C163.051 672.201 163.016 672.846 163.016 673.514C163.414 672.916 163.912 672.377 164.51 671.896C165.119 671.404 165.787 670.988 166.514 670.648C167.24 670.297 168.008 670.027 168.816 669.84C169.637 669.652 170.463 669.559 171.295 669.559C172.209 669.559 173.076 669.699 173.896 669.98C174.717 670.25 175.438 670.684 176.059 671.281C176.68 671.879 177.172 672.658 177.535 673.619C177.898 674.568 178.08 675.723 178.08 677.082V689H170.486V678.189C170.486 677.463 170.41 676.859 170.258 676.379C170.105 675.898 169.895 675.518 169.625 675.236C169.355 674.955 169.033 674.756 168.658 674.639C168.295 674.521 167.896 674.463 167.463 674.463C166.994 674.463 166.531 674.545 166.074 674.709C165.617 674.861 165.201 675.072 164.826 675.342C164.451 675.611 164.129 675.928 163.859 676.291C163.59 676.654 163.414 677.041 163.332 677.451V689H155.738V670.033ZM192.811 689.51C191.721 689.51 190.678 689.375 189.682 689.105C188.686 688.848 187.807 688.408 187.045 687.787C186.295 687.154 185.691 686.322 185.234 685.291C184.789 684.248 184.566 682.953 184.566 681.406V674.393H181.068V673.25L189.348 664.25H192.16V670.033H197.785C197.645 670.736 197.516 671.445 197.398 672.16C197.293 672.875 197.234 673.619 197.223 674.393H192.16V681.336C192.16 681.758 192.189 682.168 192.248 682.566C192.318 682.953 192.453 683.299 192.652 683.604C192.852 683.896 193.139 684.137 193.514 684.324C193.889 684.5 194.387 684.588 195.008 684.588C195.406 684.588 195.846 684.553 196.326 684.482C196.807 684.4 197.352 684.254 197.961 684.043L198.383 688.596C197.645 688.865 196.795 689.082 195.834 689.246C194.885 689.422 193.877 689.51 192.811 689.51ZM201.898 670.033H209.123C209.1 670.338 209.082 670.678 209.07 671.053C209.059 671.416 209.053 671.803 209.053 672.213C209.053 672.611 209.053 673.016 209.053 673.426C209.053 673.836 209.053 674.229 209.053 674.604C209.287 674.029 209.592 673.443 209.967 672.846C210.342 672.236 210.781 671.691 211.285 671.211C211.801 670.73 212.381 670.338 213.025 670.033C213.682 669.717 214.414 669.559 215.223 669.559C215.375 669.559 215.539 669.57 215.715 669.594C215.902 669.605 216.084 669.629 216.26 669.664C216.436 669.699 216.6 669.746 216.752 669.805C216.916 669.852 217.051 669.91 217.156 669.98L216.541 677.223C216.014 677.023 215.457 676.877 214.871 676.783C214.285 676.678 213.775 676.625 213.342 676.625C212.744 676.625 212.217 676.701 211.76 676.854C211.314 676.994 210.934 677.182 210.617 677.416C210.301 677.65 210.049 677.908 209.861 678.189C209.686 678.471 209.562 678.746 209.492 679.016V689H201.898V670.033ZM229.988 689.51C228.605 689.51 227.375 689.381 226.297 689.123C225.219 688.865 224.275 688.508 223.467 688.051C222.658 687.594 221.967 687.055 221.393 686.434C220.83 685.801 220.373 685.115 220.021 684.377C219.67 683.639 219.412 682.859 219.248 682.039C219.096 681.219 219.02 680.387 219.02 679.543C219.02 678.711 219.096 677.891 219.248 677.082C219.412 676.262 219.67 675.482 220.021 674.744C220.373 673.994 220.83 673.309 221.393 672.688C221.955 672.055 222.641 671.51 223.449 671.053C224.27 670.584 225.219 670.221 226.297 669.963C227.375 669.693 228.605 669.559 229.988 669.559C231.371 669.559 232.602 669.693 233.68 669.963C234.758 670.221 235.701 670.584 236.51 671.053C237.33 671.51 238.021 672.055 238.584 672.688C239.146 673.309 239.604 673.994 239.955 674.744C240.307 675.482 240.559 676.262 240.711 677.082C240.875 677.891 240.957 678.711 240.957 679.543C240.957 680.387 240.875 681.219 240.711 682.039C240.559 682.859 240.307 683.639 239.955 684.377C239.604 685.115 239.141 685.801 238.566 686.434C238.004 687.055 237.318 687.594 236.51 688.051C235.701 688.508 234.758 688.865 233.68 689.123C232.602 689.381 231.371 689.51 229.988 689.51ZM226.613 679.543C226.613 680.176 226.672 680.797 226.789 681.406C226.906 682.004 227.094 682.543 227.352 683.023C227.621 683.492 227.967 683.873 228.389 684.166C228.822 684.447 229.355 684.588 229.988 684.588C230.621 684.588 231.148 684.447 231.57 684.166C232.004 683.873 232.35 683.492 232.607 683.023C232.877 682.543 233.07 682.004 233.188 681.406C233.305 680.797 233.363 680.176 233.363 679.543C233.363 678.91 233.305 678.295 233.188 677.697C233.07 677.088 232.877 676.549 232.607 676.08C232.35 675.6 232.004 675.213 231.57 674.92C231.148 674.627 230.621 674.48 229.988 674.48C229.355 674.48 228.822 674.627 228.389 674.92C227.967 675.213 227.621 675.6 227.352 676.08C227.094 676.549 226.906 677.088 226.789 677.697C226.672 678.295 226.613 678.91 226.613 679.543ZM232.625 667.062L229.988 659.996L227.352 667.062H222.078L225.594 657.5H234.383L237.898 667.062H232.625ZM245.105 662H252.699V689H245.105V662ZM275.762 688.244C274.66 688.607 273.471 688.906 272.193 689.141C270.916 689.387 269.586 689.51 268.203 689.51C266.691 689.51 265.25 689.311 263.879 688.912C262.508 688.514 261.301 687.893 260.258 687.049C259.215 686.205 258.383 685.139 257.762 683.85C257.152 682.549 256.848 681.002 256.848 679.209C256.848 678.189 257.006 677.246 257.322 676.379C257.639 675.5 258.066 674.703 258.605 673.988C259.156 673.273 259.795 672.641 260.521 672.09C261.26 671.539 262.045 671.076 262.877 670.701C263.721 670.326 264.588 670.045 265.479 669.857C266.369 669.658 267.242 669.559 268.098 669.559C269.445 669.559 270.635 669.711 271.666 670.016C272.697 670.309 273.553 670.707 274.232 671.211C274.924 671.715 275.445 672.301 275.797 672.969C276.148 673.637 276.324 674.346 276.324 675.096C276.324 676.01 276.166 676.789 275.85 677.434C275.545 678.078 275.129 678.623 274.602 679.068C274.086 679.502 273.482 679.848 272.791 680.105C272.111 680.352 271.391 680.545 270.629 680.686C269.867 680.814 269.088 680.896 268.291 680.932C267.506 680.967 266.756 680.984 266.041 680.984C265.795 680.984 265.555 680.984 265.32 680.984C265.098 680.973 264.875 680.967 264.652 680.967C264.746 681.635 264.928 682.197 265.197 682.654C265.479 683.111 265.824 683.486 266.234 683.779C266.656 684.061 267.137 684.266 267.676 684.395C268.227 684.512 268.812 684.57 269.434 684.57C269.902 684.57 270.4 684.535 270.928 684.465C271.467 684.395 272.006 684.301 272.545 684.184C273.096 684.055 273.641 683.914 274.18 683.762C274.73 683.598 275.258 683.428 275.762 683.252V688.244ZM264.494 678.26C264.775 678.248 265.133 678.23 265.566 678.207C266.012 678.184 266.48 678.143 266.973 678.084C267.465 678.025 267.957 677.943 268.449 677.838C268.941 677.732 269.387 677.598 269.785 677.434C270.184 677.27 270.506 677.064 270.752 676.818C270.998 676.572 271.121 676.273 271.121 675.922C271.121 675.324 270.881 674.85 270.4 674.498C269.932 674.135 269.275 673.953 268.432 673.953C268.045 673.953 267.629 674.012 267.184 674.129C266.738 674.234 266.322 674.445 265.936 674.762C265.549 675.078 265.221 675.518 264.951 676.08C264.682 676.643 264.529 677.369 264.494 678.26ZM281 670.033H288.225C288.201 670.338 288.184 670.678 288.172 671.053C288.16 671.416 288.154 671.803 288.154 672.213C288.154 672.611 288.154 673.016 288.154 673.426C288.154 673.836 288.154 674.229 288.154 674.604C288.389 674.029 288.693 673.443 289.068 672.846C289.443 672.236 289.883 671.691 290.387 671.211C290.902 670.73 291.482 670.338 292.127 670.033C292.783 669.717 293.516 669.559 294.324 669.559C294.477 669.559 294.641 669.57 294.816 669.594C295.004 669.605 295.186 669.629 295.361 669.664C295.537 669.699 295.701 669.746 295.854 669.805C296.018 669.852 296.152 669.91 296.258 669.98L295.643 677.223C295.115 677.023 294.559 676.877 293.973 676.783C293.387 676.678 292.877 676.625 292.443 676.625C291.846 676.625 291.318 676.701 290.861 676.854C290.416 676.994 290.035 677.182 289.719 677.416C289.402 677.65 289.15 677.908 288.963 678.189C288.787 678.471 288.664 678.746 288.594 679.016V689H281V670.033Z" fill="white"/>
</g>
</g>
<g filter="url(#filter10_d)">
<path d="M496.5 874C496.5 856.051 511.051 841.5 529 841.5H801C818.949 841.5 833.5 856.051 833.5 874V979C833.5 996.949 818.949 1011.5 801 1011.5H529C511.051 1011.5 496.5 996.949 496.5 979V874Z" fill="#F8C7EF" stroke="white"/>
<g filter="url(#filter11_d)">
<path d="M577.883 931.312H580.871V936.938H577.883V942H570.57V936.938H559.883V931.312L566.07 917.145H577.883V931.312ZM569.357 922.312L565.93 931.312H570.57V922.312H569.357ZM590.381 942.51C589.596 942.51 588.939 942.398 588.412 942.176C587.896 941.953 587.457 941.66 587.094 941.297C586.73 940.922 586.449 940.5 586.25 940.031C586.062 939.551 585.969 939.064 585.969 938.572C585.969 938.104 586.068 937.635 586.268 937.166C586.467 936.697 586.754 936.275 587.129 935.9C587.504 935.525 587.949 935.221 588.465 934.986C588.992 934.752 589.637 934.635 590.398 934.635C591.184 934.635 591.852 934.752 592.402 934.986C592.953 935.221 593.422 935.525 593.809 935.9C594.207 936.275 594.512 936.697 594.723 937.166C594.934 937.623 595.039 938.086 595.039 938.555C595.039 939.059 594.934 939.551 594.723 940.031C594.523 940.5 594.23 940.922 593.844 941.297C593.469 941.66 593 941.953 592.438 942.176C591.887 942.398 591.201 942.51 590.381 942.51ZM614.164 917.145H625.344C627.113 917.145 628.672 917.379 630.02 917.848C631.367 918.305 632.486 918.914 633.377 919.676C634.279 920.426 634.959 921.281 635.416 922.242C635.873 923.191 636.102 924.152 636.102 925.125C636.102 925.887 636.025 926.643 635.873 927.393C635.721 928.131 635.451 928.834 635.064 929.502C634.678 930.158 634.145 930.756 633.465 931.295C632.797 931.822 631.941 932.25 630.898 932.578C631.051 933.07 631.309 933.68 631.672 934.406C632.035 935.133 632.457 935.918 632.938 936.762C633.418 937.605 633.934 938.479 634.484 939.381C635.035 940.283 635.574 941.156 636.102 942H627.102C626.598 940.863 626.082 939.592 625.555 938.186C625.027 936.768 624.605 935.227 624.289 933.562H622.039V942H614.164V917.145ZM623.375 929.625C624.266 929.625 625.016 929.508 625.625 929.273C626.246 929.039 626.75 928.734 627.137 928.359C627.523 927.984 627.799 927.562 627.963 927.094C628.139 926.625 628.227 926.156 628.227 925.688C628.227 924.762 628.098 924.006 627.84 923.42C627.582 922.834 627.23 922.377 626.785 922.049C626.34 921.709 625.824 921.48 625.238 921.363C624.652 921.246 624.025 921.188 623.357 921.188H622.039V929.625H623.375ZM657.09 941.244C655.988 941.607 654.799 941.906 653.521 942.141C652.244 942.387 650.914 942.51 649.531 942.51C648.02 942.51 646.578 942.311 645.207 941.912C643.836 941.514 642.629 940.893 641.586 940.049C640.543 939.205 639.711 938.139 639.09 936.85C638.48 935.549 638.176 934.002 638.176 932.209C638.176 931.189 638.334 930.246 638.65 929.379C638.967 928.5 639.395 927.703 639.934 926.988C640.484 926.273 641.123 925.641 641.85 925.09C642.588 924.539 643.373 924.076 644.205 923.701C645.049 923.326 645.916 923.045 646.807 922.857C647.697 922.658 648.57 922.559 649.426 922.559C650.773 922.559 651.963 922.711 652.994 923.016C654.025 923.309 654.881 923.707 655.561 924.211C656.252 924.715 656.773 925.301 657.125 925.969C657.477 926.637 657.652 927.346 657.652 928.096C657.652 929.01 657.494 929.789 657.178 930.434C656.873 931.078 656.457 931.623 655.93 932.068C655.414 932.502 654.811 932.848 654.119 933.105C653.439 933.352 652.719 933.545 651.957 933.686C651.195 933.814 650.416 933.896 649.619 933.932C648.834 933.967 648.084 933.984 647.369 933.984C647.123 933.984 646.883 933.984 646.648 933.984C646.426 933.973 646.203 933.967 645.98 933.967C646.074 934.635 646.256 935.197 646.525 935.654C646.807 936.111 647.152 936.486 647.562 936.779C647.984 937.061 648.465 937.266 649.004 937.395C649.555 937.512 650.141 937.57 650.762 937.57C651.23 937.57 651.729 937.535 652.256 937.465C652.795 937.395 653.334 937.301 653.873 937.184C654.424 937.055 654.969 936.914 655.508 936.762C656.059 936.598 656.586 936.428 657.09 936.252V941.244ZM645.822 931.26C646.104 931.248 646.461 931.23 646.895 931.207C647.34 931.184 647.809 931.143 648.301 931.084C648.793 931.025 649.285 930.943 649.777 930.838C650.27 930.732 650.715 930.598 651.113 930.434C651.512 930.27 651.834 930.064 652.08 929.818C652.326 929.572 652.449 929.273 652.449 928.922C652.449 928.324 652.209 927.85 651.729 927.498C651.26 927.135 650.604 926.953 649.76 926.953C649.373 926.953 648.957 927.012 648.512 927.129C648.066 927.234 647.65 927.445 647.264 927.762C646.877 928.078 646.549 928.518 646.279 929.08C646.01 929.643 645.857 930.369 645.822 931.26ZM643.379 920.572L645.066 909.428H652.941L648.441 920.572H643.379ZM666.898 942.51C666.148 942.51 665.428 942.404 664.736 942.193C664.057 941.982 663.453 941.66 662.926 941.227C662.398 940.793 661.977 940.248 661.66 939.592C661.355 938.924 661.203 938.139 661.203 937.236C661.203 936.369 661.344 935.619 661.625 934.986C661.906 934.342 662.281 933.791 662.75 933.334C663.23 932.877 663.787 932.502 664.42 932.209C665.064 931.904 665.744 931.67 666.459 931.506C667.174 931.33 667.906 931.213 668.656 931.154C669.418 931.084 670.156 931.049 670.871 931.049C671.363 931.049 671.838 931.061 672.295 931.084C672.752 931.107 673.18 931.137 673.578 931.172C673.555 930.434 673.414 929.824 673.156 929.344C672.898 928.852 672.559 928.465 672.137 928.184C671.715 927.891 671.223 927.686 670.66 927.568C670.098 927.451 669.506 927.393 668.885 927.393C668.311 927.393 667.719 927.434 667.109 927.516C666.512 927.586 665.926 927.68 665.352 927.797C664.777 927.902 664.227 928.02 663.699 928.148C663.184 928.277 662.727 928.395 662.328 928.5V923.578C662.902 923.449 663.518 923.326 664.174 923.209C664.842 923.08 665.533 922.969 666.248 922.875C666.963 922.781 667.689 922.705 668.428 922.646C669.178 922.588 669.916 922.559 670.643 922.559C671.545 922.559 672.43 922.617 673.297 922.734C674.176 922.84 675.002 923.021 675.775 923.279C676.561 923.537 677.281 923.883 677.938 924.316C678.605 924.75 679.174 925.289 679.643 925.934C680.123 926.566 680.498 927.316 680.768 928.184C681.037 929.051 681.172 930.053 681.172 931.189V942H673.93V938.854C673.648 939.428 673.256 939.943 672.752 940.4C672.248 940.846 671.68 941.227 671.047 941.543C670.414 941.859 669.74 942.1 669.025 942.264C668.311 942.428 667.602 942.51 666.898 942.51ZM669.869 938.379C670.197 938.379 670.572 938.291 670.994 938.115C671.428 937.928 671.832 937.646 672.207 937.271C672.594 936.896 672.916 936.422 673.174 935.848C673.443 935.273 673.578 934.588 673.578 933.791H672.998C672.436 933.791 671.855 933.85 671.258 933.967C670.672 934.084 670.133 934.26 669.641 934.494C669.148 934.729 668.744 935.016 668.428 935.355C668.111 935.695 667.953 936.088 667.953 936.533C667.953 936.885 668.012 937.178 668.129 937.412C668.246 937.646 668.393 937.84 668.568 937.992C668.756 938.133 668.961 938.232 669.184 938.291C669.418 938.35 669.646 938.379 669.869 938.379ZM686.27 915H693.863V942H686.27V915ZM699.453 923.033H707.047V942H699.453V923.033ZM703.268 919.131C702.6 919.131 701.973 919.061 701.387 918.92C700.801 918.779 700.291 918.586 699.857 918.34C699.436 918.094 699.096 917.795 698.838 917.443C698.592 917.092 698.469 916.705 698.469 916.283C698.469 915.814 698.592 915.404 698.838 915.053C699.084 914.689 699.424 914.391 699.857 914.156C700.291 913.922 700.801 913.746 701.387 913.629C701.973 913.512 702.605 913.453 703.285 913.453C703.965 913.453 704.598 913.512 705.184 913.629C705.781 913.746 706.297 913.922 706.73 914.156C707.164 914.391 707.504 914.689 707.75 915.053C707.996 915.404 708.119 915.814 708.119 916.283C708.119 916.705 707.99 917.092 707.732 917.443C707.486 917.795 707.146 918.094 706.713 918.34C706.279 918.586 705.764 918.779 705.166 918.92C704.58 919.061 703.947 919.131 703.268 919.131ZM727.508 928.711C726.336 928.172 725.188 927.756 724.062 927.463C722.949 927.158 721.971 927.006 721.127 927.006C720.236 927.006 719.604 927.094 719.229 927.27C718.854 927.434 718.666 927.727 718.666 928.148C718.666 928.523 718.941 928.822 719.492 929.045C720.043 929.256 720.852 929.502 721.918 929.783C722.984 930.064 723.939 930.375 724.783 930.715C725.627 931.055 726.342 931.477 726.928 931.98C727.525 932.484 727.977 933.088 728.281 933.791C728.598 934.494 728.756 935.355 728.756 936.375C728.756 937.289 728.58 938.127 728.229 938.889C727.877 939.639 727.344 940.283 726.629 940.822C725.914 941.361 725.012 941.777 723.922 942.07C722.832 942.363 721.549 942.51 720.072 942.51C718.76 942.51 717.441 942.41 716.117 942.211C714.793 942.023 713.457 941.684 712.109 941.191V935.76C713.316 936.287 714.529 936.709 715.748 937.025C716.967 937.342 718.127 937.5 719.229 937.5C721.209 937.5 722.199 937.09 722.199 936.27C722.199 936.129 722.152 936 722.059 935.883C721.965 935.766 721.789 935.654 721.531 935.549C721.285 935.432 720.934 935.314 720.477 935.197C720.031 935.068 719.457 934.916 718.754 934.74C717.781 934.506 716.861 934.207 715.994 933.844C715.139 933.469 714.389 933.018 713.744 932.49C713.111 931.951 712.607 931.324 712.232 930.609C711.869 929.895 711.688 929.08 711.688 928.166C711.688 927.346 711.857 926.59 712.197 925.898C712.549 925.207 713.07 924.615 713.762 924.123C714.465 923.631 715.332 923.25 716.363 922.98C717.406 922.699 718.613 922.559 719.984 922.559C720.781 922.559 721.543 922.594 722.27 922.664C723.008 922.734 723.705 922.822 724.361 922.928C725.018 923.021 725.627 923.127 726.189 923.244C726.764 923.35 727.291 923.449 727.771 923.543L727.508 928.711ZM750.641 941.244C749.539 941.607 748.35 941.906 747.072 942.141C745.795 942.387 744.465 942.51 743.082 942.51C741.57 942.51 740.129 942.311 738.758 941.912C737.387 941.514 736.18 940.893 735.137 940.049C734.094 939.205 733.262 938.139 732.641 936.85C732.031 935.549 731.727 934.002 731.727 932.209C731.727 931.189 731.885 930.246 732.201 929.379C732.518 928.5 732.945 927.703 733.484 926.988C734.035 926.273 734.674 925.641 735.4 925.09C736.139 924.539 736.924 924.076 737.756 923.701C738.6 923.326 739.467 923.045 740.357 922.857C741.248 922.658 742.121 922.559 742.977 922.559C744.324 922.559 745.514 922.711 746.545 923.016C747.576 923.309 748.432 923.707 749.111 924.211C749.803 924.715 750.324 925.301 750.676 925.969C751.027 926.637 751.203 927.346 751.203 928.096C751.203 929.01 751.045 929.789 750.729 930.434C750.424 931.078 750.008 931.623 749.48 932.068C748.965 932.502 748.361 932.848 747.67 933.105C746.99 933.352 746.27 933.545 745.508 933.686C744.746 933.814 743.967 933.896 743.17 933.932C742.385 933.967 741.635 933.984 740.92 933.984C740.674 933.984 740.434 933.984 740.199 933.984C739.977 933.973 739.754 933.967 739.531 933.967C739.625 934.635 739.807 935.197 740.076 935.654C740.357 936.111 740.703 936.486 741.113 936.779C741.535 937.061 742.016 937.266 742.555 937.395C743.105 937.512 743.691 937.57 744.312 937.57C744.781 937.57 745.279 937.535 745.807 937.465C746.346 937.395 746.885 937.301 747.424 937.184C747.975 937.055 748.52 936.914 749.059 936.762C749.609 936.598 750.137 936.428 750.641 936.252V941.244ZM739.373 931.26C739.654 931.248 740.012 931.23 740.445 931.207C740.891 931.184 741.359 931.143 741.852 931.084C742.344 931.025 742.836 930.943 743.328 930.838C743.82 930.732 744.266 930.598 744.664 930.434C745.062 930.27 745.385 930.064 745.631 929.818C745.877 929.572 746 929.273 746 928.922C746 928.324 745.76 927.85 745.279 927.498C744.811 927.135 744.154 926.953 743.311 926.953C742.924 926.953 742.508 927.012 742.062 927.129C741.617 927.234 741.201 927.445 740.814 927.762C740.428 928.078 740.1 928.518 739.83 929.08C739.561 929.643 739.408 930.369 739.373 931.26ZM755.879 923.033H763.104C763.08 923.338 763.062 923.678 763.051 924.053C763.039 924.416 763.033 924.803 763.033 925.213C763.033 925.611 763.033 926.016 763.033 926.426C763.033 926.836 763.033 927.229 763.033 927.604C763.268 927.029 763.572 926.443 763.947 925.846C764.322 925.236 764.762 924.691 765.266 924.211C765.781 923.73 766.361 923.338 767.006 923.033C767.662 922.717 768.395 922.559 769.203 922.559C769.355 922.559 769.52 922.57 769.695 922.594C769.883 922.605 770.064 922.629 770.24 922.664C770.416 922.699 770.58 922.746 770.732 922.805C770.896 922.852 771.031 922.91 771.137 922.98L770.521 930.223C769.994 930.023 769.438 929.877 768.852 929.783C768.266 929.678 767.756 929.625 767.322 929.625C766.725 929.625 766.197 929.701 765.74 929.854C765.295 929.994 764.914 930.182 764.598 930.416C764.281 930.65 764.029 930.908 763.842 931.189C763.666 931.471 763.543 931.746 763.473 932.016V942H755.879V923.033Z" fill="white"/>
</g>
</g>
<g filter="url(#filter12_d)">
<path d="M965.5 621C965.5 603.051 980.051 588.5 998 588.5H1270C1287.95 588.5 1302.5 603.051 1302.5 621V726C1302.5 743.949 1287.95 758.5 1270 758.5H998C980.051 758.5 965.5 743.949 965.5 726V621Z" fill="#E9C7F8" stroke="white"/>
<g filter="url(#filter13_d)">
<path d="M1036.9 673.812C1038.32 673.812 1039.46 673.766 1040.34 673.672C1041.23 673.566 1041.92 673.414 1042.4 673.215C1042.89 673.004 1043.22 672.746 1043.38 672.441C1043.56 672.125 1043.65 671.762 1043.65 671.352C1043.65 670.871 1043.55 670.461 1043.35 670.121C1043.15 669.781 1042.88 669.506 1042.54 669.295C1042.2 669.084 1041.81 668.932 1041.36 668.838C1040.92 668.732 1040.45 668.68 1039.96 668.68C1039.49 668.68 1039 668.709 1038.48 668.768C1037.98 668.826 1037.47 668.914 1036.95 669.031C1036.45 669.137 1035.95 669.266 1035.46 669.418C1034.96 669.57 1034.51 669.74 1034.09 669.928V665.146C1035.19 664.631 1036.32 664.262 1037.48 664.039C1038.65 663.805 1039.95 663.682 1041.38 663.67C1042.74 663.682 1043.94 663.787 1044.97 663.986C1046 664.174 1046.89 664.438 1047.64 664.777C1048.39 665.117 1049.01 665.516 1049.5 665.973C1050.01 666.43 1050.4 666.928 1050.7 667.467C1051 668.006 1051.21 668.568 1051.33 669.154C1051.46 669.74 1051.52 670.332 1051.52 670.93C1051.52 671.832 1051.37 672.6 1051.07 673.232C1050.76 673.865 1050.38 674.393 1049.92 674.814C1049.47 675.225 1048.97 675.547 1048.43 675.781C1047.9 676.004 1047.41 676.168 1046.95 676.273C1047.48 676.367 1048.04 676.525 1048.64 676.748C1049.24 676.971 1049.79 677.299 1050.29 677.732C1050.81 678.166 1051.24 678.723 1051.58 679.402C1051.92 680.07 1052.09 680.902 1052.09 681.898C1052.09 682.566 1052.02 683.217 1051.88 683.85C1051.75 684.482 1051.52 685.08 1051.19 685.643C1050.87 686.205 1050.44 686.727 1049.89 687.207C1049.35 687.676 1048.67 688.08 1047.85 688.42C1047.04 688.76 1046.07 689.023 1044.95 689.211C1043.84 689.41 1042.54 689.51 1041.06 689.51C1039.73 689.51 1038.5 689.404 1037.37 689.193C1036.25 688.994 1035.15 688.672 1034.09 688.227V683.252C1034.5 683.439 1034.95 683.609 1035.44 683.762C1035.93 683.914 1036.44 684.049 1036.95 684.166C1037.47 684.271 1037.98 684.354 1038.5 684.412C1039.01 684.471 1039.5 684.5 1039.96 684.5C1040.43 684.5 1040.88 684.447 1041.33 684.342C1041.77 684.236 1042.17 684.066 1042.51 683.832C1042.86 683.598 1043.13 683.293 1043.33 682.918C1043.54 682.543 1043.65 682.08 1043.65 681.529C1043.65 681.061 1043.57 680.633 1043.42 680.246C1043.27 679.848 1042.95 679.508 1042.47 679.227C1042 678.934 1041.32 678.711 1040.43 678.559C1039.55 678.395 1038.38 678.312 1036.9 678.312V673.812ZM1062.7 689.51C1061.92 689.51 1061.26 689.398 1060.73 689.176C1060.22 688.953 1059.78 688.66 1059.42 688.297C1059.05 687.922 1058.77 687.5 1058.57 687.031C1058.38 686.551 1058.29 686.064 1058.29 685.572C1058.29 685.104 1058.39 684.635 1058.59 684.166C1058.79 683.697 1059.08 683.275 1059.45 682.9C1059.83 682.525 1060.27 682.221 1060.79 681.986C1061.31 681.752 1061.96 681.635 1062.72 681.635C1063.51 681.635 1064.17 681.752 1064.72 681.986C1065.28 682.221 1065.74 682.525 1066.13 682.9C1066.53 683.275 1066.83 683.697 1067.04 684.166C1067.26 684.623 1067.36 685.086 1067.36 685.555C1067.36 686.059 1067.26 686.551 1067.04 687.031C1066.85 687.5 1066.55 687.922 1066.17 688.297C1065.79 688.66 1065.32 688.953 1064.76 689.176C1064.21 689.398 1063.52 689.51 1062.7 689.51ZM1086.49 689V664.145H1095.13C1097.27 664.145 1099.18 664.396 1100.88 664.9C1102.58 665.393 1104.02 666.148 1105.19 667.168C1106.37 668.176 1107.28 669.447 1107.9 670.982C1108.53 672.506 1108.85 674.299 1108.85 676.361C1108.85 677.932 1108.68 679.338 1108.35 680.58C1108.04 681.811 1107.58 682.895 1106.98 683.832C1106.4 684.77 1105.68 685.566 1104.84 686.223C1104.01 686.867 1103.08 687.4 1102.06 687.822C1101.04 688.232 1099.94 688.531 1098.76 688.719C1097.58 688.906 1096.35 689 1095.06 689H1086.49ZM1094.36 683.375H1094.89C1095.8 683.375 1096.63 683.293 1097.38 683.129C1098.13 682.953 1098.77 682.613 1099.3 682.109C1099.84 681.605 1100.25 680.896 1100.53 679.982C1100.82 679.068 1100.97 677.861 1100.97 676.361C1100.97 675.002 1100.84 673.871 1100.58 672.969C1100.33 672.055 1099.95 671.328 1099.44 670.789C1098.94 670.238 1098.32 669.852 1097.58 669.629C1096.84 669.395 1096 669.277 1095.05 669.277H1094.36V683.375ZM1130.89 688.244C1129.79 688.607 1128.6 688.906 1127.32 689.141C1126.04 689.387 1124.71 689.51 1123.33 689.51C1121.82 689.51 1120.38 689.311 1119.01 688.912C1117.63 688.514 1116.43 687.893 1115.38 687.049C1114.34 686.205 1113.51 685.139 1112.89 683.85C1112.28 682.549 1111.97 681.002 1111.97 679.209C1111.97 678.189 1112.13 677.246 1112.45 676.379C1112.77 675.5 1113.19 674.703 1113.73 673.988C1114.28 673.273 1114.92 672.641 1115.65 672.09C1116.39 671.539 1117.17 671.076 1118 670.701C1118.85 670.326 1119.71 670.045 1120.61 669.857C1121.5 669.658 1122.37 669.559 1123.22 669.559C1124.57 669.559 1125.76 669.711 1126.79 670.016C1127.82 670.309 1128.68 670.707 1129.36 671.211C1130.05 671.715 1130.57 672.301 1130.92 672.969C1131.28 673.637 1131.45 674.346 1131.45 675.096C1131.45 676.01 1131.29 676.789 1130.98 677.434C1130.67 678.078 1130.26 678.623 1129.73 679.068C1129.21 679.502 1128.61 679.848 1127.92 680.105C1127.24 680.352 1126.52 680.545 1125.76 680.686C1124.99 680.814 1124.21 680.896 1123.42 680.932C1122.63 680.967 1121.88 680.984 1121.17 680.984C1120.92 680.984 1120.68 680.984 1120.45 680.984C1120.22 680.973 1120 680.967 1119.78 680.967C1119.87 681.635 1120.05 682.197 1120.32 682.654C1120.61 683.111 1120.95 683.486 1121.36 683.779C1121.78 684.061 1122.26 684.266 1122.8 684.395C1123.35 684.512 1123.94 684.57 1124.56 684.57C1125.03 684.57 1125.53 684.535 1126.05 684.465C1126.59 684.395 1127.13 684.301 1127.67 684.184C1128.22 684.055 1128.77 683.914 1129.31 683.762C1129.86 683.598 1130.38 683.428 1130.89 683.252V688.244ZM1119.62 678.26C1119.9 678.248 1120.26 678.23 1120.69 678.207C1121.14 678.184 1121.61 678.143 1122.1 678.084C1122.59 678.025 1123.08 677.943 1123.58 677.838C1124.07 677.732 1124.51 677.598 1124.91 677.434C1125.31 677.27 1125.63 677.064 1125.88 676.818C1126.12 676.572 1126.25 676.273 1126.25 675.922C1126.25 675.324 1126.01 674.85 1125.53 674.498C1125.06 674.135 1124.4 673.953 1123.56 673.953C1123.17 673.953 1122.76 674.012 1122.31 674.129C1121.87 674.234 1121.45 674.445 1121.06 674.762C1120.68 675.078 1120.35 675.518 1120.08 676.08C1119.81 676.643 1119.66 677.369 1119.62 678.26ZM1117.18 667.572L1118.87 656.428H1126.74L1122.24 667.572H1117.18ZM1142.38 679.543C1142.38 680.398 1142.48 681.143 1142.68 681.775C1142.89 682.408 1143.19 682.936 1143.56 683.357C1143.94 683.768 1144.39 684.078 1144.92 684.289C1145.44 684.488 1146.04 684.588 1146.69 684.588C1147.54 684.588 1148.33 684.477 1149.08 684.254C1149.83 684.02 1150.6 683.703 1151.38 683.305L1152.51 687.875C1151.99 688.145 1151.44 688.385 1150.84 688.596C1150.24 688.795 1149.63 688.959 1148.99 689.088C1148.36 689.229 1147.72 689.334 1147.06 689.404C1146.42 689.475 1145.78 689.51 1145.16 689.51C1143.74 689.51 1142.41 689.311 1141.15 688.912C1139.9 688.514 1138.8 687.904 1137.85 687.084C1136.91 686.264 1136.17 685.227 1135.62 683.973C1135.07 682.719 1134.79 681.236 1134.79 679.525C1134.79 677.814 1135.07 676.332 1135.62 675.078C1136.17 673.824 1136.91 672.787 1137.85 671.967C1138.8 671.146 1139.9 670.537 1141.15 670.139C1142.41 669.74 1143.74 669.541 1145.16 669.541C1145.78 669.541 1146.42 669.576 1147.06 669.646C1147.72 669.717 1148.36 669.822 1148.99 669.963C1149.63 670.092 1150.24 670.262 1150.84 670.473C1151.44 670.672 1151.99 670.906 1152.51 671.176L1151.38 675.746C1150.6 675.348 1149.83 675.037 1149.08 674.814C1148.33 674.58 1147.54 674.463 1146.69 674.463C1146.04 674.463 1145.44 674.568 1144.92 674.779C1144.39 674.979 1143.94 675.289 1143.56 675.711C1143.19 676.133 1142.89 676.666 1142.68 677.311C1142.48 677.943 1142.38 678.688 1142.38 679.543ZM1157.57 670.033H1165.17V689H1157.57V670.033ZM1161.39 666.131C1160.72 666.131 1160.09 666.061 1159.51 665.92C1158.92 665.779 1158.41 665.586 1157.98 665.34C1157.55 665.094 1157.21 664.795 1156.96 664.443C1156.71 664.092 1156.59 663.705 1156.59 663.283C1156.59 662.814 1156.71 662.404 1156.96 662.053C1157.2 661.689 1157.54 661.391 1157.98 661.156C1158.41 660.922 1158.92 660.746 1159.51 660.629C1160.09 660.512 1160.72 660.453 1161.4 660.453C1162.08 660.453 1162.72 660.512 1163.3 660.629C1163.9 660.746 1164.42 660.922 1164.85 661.156C1165.28 661.391 1165.62 661.689 1165.87 662.053C1166.12 662.404 1166.24 662.814 1166.24 663.283C1166.24 663.705 1166.11 664.092 1165.85 664.443C1165.61 664.795 1165.27 665.094 1164.83 665.34C1164.4 665.586 1163.88 665.779 1163.29 665.92C1162.7 666.061 1162.07 666.131 1161.39 666.131ZM1178.16 689.51C1177.01 689.51 1175.91 689.316 1174.87 688.93C1173.84 688.543 1172.93 687.945 1172.14 687.137C1171.37 686.316 1170.75 685.279 1170.28 684.025C1169.82 682.771 1169.6 681.277 1169.6 679.543C1169.6 677.715 1169.83 676.168 1170.3 674.902C1170.78 673.625 1171.41 672.594 1172.18 671.809C1172.95 671.012 1173.84 670.438 1174.83 670.086C1175.83 669.734 1176.86 669.559 1177.91 669.559C1178.58 669.559 1179.25 669.635 1179.91 669.787C1180.58 669.939 1181.21 670.156 1181.79 670.438C1182.38 670.707 1182.91 671.029 1183.38 671.404C1183.85 671.779 1184.21 672.189 1184.48 672.635V662H1192.08V689H1184.48V685.871C1184.17 686.445 1183.78 686.961 1183.32 687.418C1182.87 687.863 1182.36 688.244 1181.79 688.561C1181.24 688.865 1180.66 689.1 1180.04 689.264C1179.42 689.428 1178.79 689.51 1178.16 689.51ZM1177.19 679.561C1177.19 680.521 1177.29 681.324 1177.51 681.969C1177.72 682.613 1177.99 683.135 1178.33 683.533C1178.68 683.92 1179.08 684.201 1179.51 684.377C1179.96 684.541 1180.41 684.623 1180.86 684.623C1181.32 684.623 1181.77 684.541 1182.2 684.377C1182.63 684.201 1183.02 683.92 1183.36 683.533C1183.7 683.135 1183.97 682.613 1184.17 681.969C1184.38 681.312 1184.48 680.504 1184.48 679.543C1184.48 678.594 1184.38 677.797 1184.17 677.152C1183.97 676.496 1183.7 675.969 1183.36 675.57C1183.02 675.172 1182.63 674.891 1182.2 674.727C1181.78 674.551 1181.34 674.463 1180.88 674.463C1180.42 674.463 1179.97 674.551 1179.53 674.727C1179.09 674.891 1178.7 675.172 1178.35 675.57C1178 675.969 1177.72 676.496 1177.51 677.152C1177.29 677.797 1177.19 678.6 1177.19 679.561ZM1215.16 688.244C1214.06 688.607 1212.87 688.906 1211.59 689.141C1210.31 689.387 1208.98 689.51 1207.6 689.51C1206.09 689.51 1204.65 689.311 1203.28 688.912C1201.9 688.514 1200.7 687.893 1199.65 687.049C1198.61 686.205 1197.78 685.139 1197.16 683.85C1196.55 682.549 1196.24 681.002 1196.24 679.209C1196.24 678.189 1196.4 677.246 1196.72 676.379C1197.04 675.5 1197.46 674.703 1198 673.988C1198.55 673.273 1199.19 672.641 1199.92 672.09C1200.66 671.539 1201.44 671.076 1202.27 670.701C1203.12 670.326 1203.98 670.045 1204.88 669.857C1205.77 669.658 1206.64 669.559 1207.49 669.559C1208.84 669.559 1210.03 669.711 1211.06 670.016C1212.09 670.309 1212.95 670.707 1213.63 671.211C1214.32 671.715 1214.84 672.301 1215.19 672.969C1215.54 673.637 1215.72 674.346 1215.72 675.096C1215.72 676.01 1215.56 676.789 1215.25 677.434C1214.94 678.078 1214.53 678.623 1214 679.068C1213.48 679.502 1212.88 679.848 1212.19 680.105C1211.51 680.352 1210.79 680.545 1210.03 680.686C1209.26 680.814 1208.48 680.896 1207.69 680.932C1206.9 680.967 1206.15 680.984 1205.44 680.984C1205.19 680.984 1204.95 680.984 1204.72 680.984C1204.49 680.973 1204.27 680.967 1204.05 680.967C1204.14 681.635 1204.32 682.197 1204.59 682.654C1204.88 683.111 1205.22 683.486 1205.63 683.779C1206.05 684.061 1206.53 684.266 1207.07 684.395C1207.62 684.512 1208.21 684.57 1208.83 684.57C1209.3 684.57 1209.8 684.535 1210.32 684.465C1210.86 684.395 1211.4 684.301 1211.94 684.184C1212.49 684.055 1213.04 683.914 1213.58 683.762C1214.13 683.598 1214.65 683.428 1215.16 683.252V688.244ZM1203.89 678.26C1204.17 678.248 1204.53 678.23 1204.96 678.207C1205.41 678.184 1205.88 678.143 1206.37 678.084C1206.86 678.025 1207.35 677.943 1207.85 677.838C1208.34 677.732 1208.78 677.598 1209.18 677.434C1209.58 677.27 1209.9 677.064 1210.15 676.818C1210.39 676.572 1210.52 676.273 1210.52 675.922C1210.52 675.324 1210.28 674.85 1209.8 674.498C1209.33 674.135 1208.67 673.953 1207.83 673.953C1207.44 673.953 1207.03 674.012 1206.58 674.129C1206.13 674.234 1205.72 674.445 1205.33 674.762C1204.95 675.078 1204.62 675.518 1204.35 676.08C1204.08 676.643 1203.93 677.369 1203.89 678.26ZM1220.4 670.033H1227.62C1227.6 670.338 1227.58 670.678 1227.57 671.053C1227.56 671.416 1227.55 671.803 1227.55 672.213C1227.55 672.611 1227.55 673.016 1227.55 673.426C1227.55 673.836 1227.55 674.229 1227.55 674.604C1227.79 674.029 1228.09 673.443 1228.46 672.846C1228.84 672.236 1229.28 671.691 1229.78 671.211C1230.3 670.73 1230.88 670.338 1231.52 670.033C1232.18 669.717 1232.91 669.559 1233.72 669.559C1233.87 669.559 1234.04 669.57 1234.21 669.594C1234.4 669.605 1234.58 669.629 1234.76 669.664C1234.93 669.699 1235.1 669.746 1235.25 669.805C1235.41 669.852 1235.55 669.91 1235.65 669.98L1235.04 677.223C1234.51 677.023 1233.96 676.877 1233.37 676.783C1232.78 676.678 1232.27 676.625 1231.84 676.625C1231.24 676.625 1230.71 676.701 1230.26 676.854C1229.81 676.994 1229.43 677.182 1229.12 677.416C1228.8 677.65 1228.55 677.908 1228.36 678.189C1228.18 678.471 1228.06 678.746 1227.99 679.016V689H1220.4V670.033Z" fill="white"/>
</g>
</g>
<g filter="url(#filter14_d)">
<path d="M965.5 286C965.5 268.051 980.051 253.5 998 253.5H1270C1287.95 253.5 1302.5 268.051 1302.5 286V391C1302.5 408.949 1287.95 423.5 1270 423.5H998C980.051 423.5 965.5 408.949 965.5 391V286Z" fill="#D0C7F8" stroke="white"/>
<g filter="url(#filter15_d)">
<path d="M1030.61 347.865H1040.12V354H1023.49L1022.57 347.812C1023.1 347.309 1023.71 346.787 1024.4 346.248C1025.09 345.697 1025.81 345.135 1026.54 344.561C1027.28 343.975 1028.01 343.377 1028.72 342.768C1029.44 342.146 1030.08 341.514 1030.64 340.869C1031.2 340.213 1031.65 339.539 1031.99 338.848C1032.35 338.156 1032.52 337.447 1032.52 336.721C1032.52 336.275 1032.42 335.9 1032.21 335.596C1032.01 335.279 1031.75 335.027 1031.43 334.84C1031.12 334.652 1030.76 334.518 1030.36 334.436C1029.97 334.354 1029.59 334.312 1029.2 334.312C1028.72 334.312 1028.23 334.348 1027.74 334.418C1027.25 334.488 1026.77 334.576 1026.32 334.682C1025.86 334.787 1025.43 334.91 1025.03 335.051C1024.65 335.18 1024.32 335.309 1024.05 335.438L1022.92 329.812C1024.24 329.367 1025.53 329.068 1026.81 328.916C1028.09 328.752 1029.29 328.67 1030.43 328.67C1032.13 328.67 1033.6 328.875 1034.84 329.285C1036.1 329.684 1037.13 330.229 1037.95 330.92C1038.77 331.6 1039.38 332.396 1039.76 333.311C1040.16 334.225 1040.36 335.186 1040.36 336.193C1040.36 337.295 1040.1 338.402 1039.57 339.516C1039.05 340.617 1038.35 341.678 1037.46 342.697C1036.58 343.717 1035.55 344.672 1034.37 345.562C1033.18 346.441 1031.93 347.209 1030.61 347.865ZM1051.22 354.51C1050.44 354.51 1049.78 354.398 1049.26 354.176C1048.74 353.953 1048.3 353.66 1047.94 353.297C1047.57 352.922 1047.29 352.5 1047.09 352.031C1046.91 351.551 1046.81 351.064 1046.81 350.572C1046.81 350.104 1046.91 349.635 1047.11 349.166C1047.31 348.697 1047.6 348.275 1047.97 347.9C1048.35 347.525 1048.79 347.221 1049.31 346.986C1049.84 346.752 1050.48 346.635 1051.24 346.635C1052.03 346.635 1052.7 346.752 1053.25 346.986C1053.8 347.221 1054.27 347.525 1054.65 347.9C1055.05 348.275 1055.36 348.697 1055.57 349.166C1055.78 349.623 1055.88 350.086 1055.88 350.555C1055.88 351.059 1055.78 351.551 1055.57 352.031C1055.37 352.5 1055.07 352.922 1054.69 353.297C1054.31 353.66 1053.84 353.953 1053.28 354.176C1052.73 354.398 1052.04 354.51 1051.22 354.51ZM1075.01 329.145H1084.61C1086.27 329.145 1087.73 329.25 1088.98 329.461C1090.25 329.66 1091.34 329.947 1092.27 330.322C1093.2 330.697 1093.96 331.148 1094.57 331.676C1095.19 332.203 1095.69 332.783 1096.05 333.416C1096.42 334.037 1096.69 334.705 1096.84 335.42C1096.99 336.135 1097.07 336.873 1097.07 337.635C1097.07 338.279 1096.99 338.924 1096.84 339.568C1096.7 340.213 1096.45 340.828 1096.1 341.414C1095.76 342 1095.3 342.545 1094.73 343.049C1094.16 343.553 1093.45 343.992 1092.6 344.367C1091.77 344.742 1090.78 345.035 1089.63 345.246C1088.5 345.457 1087.18 345.562 1085.7 345.562C1085.48 345.562 1085.22 345.562 1084.9 345.562C1084.59 345.551 1084.28 345.533 1083.97 345.51L1082.88 345.439V354H1075.01V329.145ZM1082.88 341.625H1084.69C1085.54 341.625 1086.25 341.525 1086.82 341.326C1087.39 341.115 1087.86 340.834 1088.21 340.482C1088.56 340.131 1088.81 339.715 1088.96 339.234C1089.12 338.754 1089.19 338.238 1089.19 337.688C1089.19 336.809 1089.08 336.082 1088.86 335.508C1088.64 334.934 1088.32 334.477 1087.91 334.137C1087.51 333.785 1087.04 333.539 1086.49 333.398C1085.94 333.258 1085.34 333.188 1084.69 333.188H1082.88V341.625ZM1101.16 327H1108.76V354H1101.16V327ZM1118.81 354.51C1118.06 354.51 1117.34 354.404 1116.65 354.193C1115.97 353.982 1115.37 353.66 1114.84 353.227C1114.31 352.793 1113.89 352.248 1113.57 351.592C1113.27 350.924 1113.12 350.139 1113.12 349.236C1113.12 348.369 1113.26 347.619 1113.54 346.986C1113.82 346.342 1114.2 345.791 1114.66 345.334C1115.14 344.877 1115.7 344.502 1116.33 344.209C1116.98 343.904 1117.66 343.67 1118.37 343.506C1119.09 343.33 1119.82 343.213 1120.57 343.154C1121.33 343.084 1122.07 343.049 1122.79 343.049C1123.28 343.049 1123.75 343.061 1124.21 343.084C1124.67 343.107 1125.09 343.137 1125.49 343.172C1125.47 342.434 1125.33 341.824 1125.07 341.344C1124.81 340.852 1124.47 340.465 1124.05 340.184C1123.63 339.891 1123.14 339.686 1122.57 339.568C1122.01 339.451 1121.42 339.393 1120.8 339.393C1120.22 339.393 1119.63 339.434 1119.02 339.516C1118.43 339.586 1117.84 339.68 1117.27 339.797C1116.69 339.902 1116.14 340.02 1115.61 340.148C1115.1 340.277 1114.64 340.395 1114.24 340.5V335.578C1114.82 335.449 1115.43 335.326 1116.09 335.209C1116.76 335.08 1117.45 334.969 1118.16 334.875C1118.88 334.781 1119.6 334.705 1120.34 334.646C1121.09 334.588 1121.83 334.559 1122.56 334.559C1123.46 334.559 1124.34 334.617 1125.21 334.734C1126.09 334.84 1126.92 335.021 1127.69 335.279C1128.47 335.537 1129.2 335.883 1129.85 336.316C1130.52 336.75 1131.09 337.289 1131.56 337.934C1132.04 338.566 1132.41 339.316 1132.68 340.184C1132.95 341.051 1133.09 342.053 1133.09 343.189V354H1125.84V350.854C1125.56 351.428 1125.17 351.943 1124.67 352.4C1124.16 352.846 1123.59 353.227 1122.96 353.543C1122.33 353.859 1121.65 354.1 1120.94 354.264C1120.22 354.428 1119.52 354.51 1118.81 354.51ZM1121.78 350.379C1122.11 350.379 1122.49 350.291 1122.91 350.115C1123.34 349.928 1123.75 349.646 1124.12 349.271C1124.51 348.896 1124.83 348.422 1125.09 347.848C1125.36 347.273 1125.49 346.588 1125.49 345.791H1124.91C1124.35 345.791 1123.77 345.85 1123.17 345.967C1122.59 346.084 1122.05 346.26 1121.55 346.494C1121.06 346.729 1120.66 347.016 1120.34 347.355C1120.03 347.695 1119.87 348.088 1119.87 348.533C1119.87 348.885 1119.93 349.178 1120.04 349.412C1120.16 349.646 1120.31 349.84 1120.48 349.992C1120.67 350.133 1120.88 350.232 1121.1 350.291C1121.33 350.35 1121.56 350.379 1121.78 350.379ZM1138.18 335.033H1145.78C1145.71 335.432 1145.64 335.947 1145.57 336.58C1145.5 337.201 1145.46 337.846 1145.46 338.514C1145.86 337.916 1146.36 337.377 1146.96 336.896C1147.56 336.404 1148.23 335.988 1148.96 335.648C1149.69 335.297 1150.45 335.027 1151.26 334.84C1152.08 334.652 1152.91 334.559 1153.74 334.559C1154.65 334.559 1155.52 334.699 1156.34 334.98C1157.16 335.25 1157.88 335.684 1158.5 336.281C1159.12 336.879 1159.62 337.658 1159.98 338.619C1160.34 339.568 1160.53 340.723 1160.53 342.082V354H1152.93V343.189C1152.93 342.463 1152.86 341.859 1152.7 341.379C1152.55 340.898 1152.34 340.518 1152.07 340.236C1151.8 339.955 1151.48 339.756 1151.1 339.639C1150.74 339.521 1150.34 339.463 1149.91 339.463C1149.44 339.463 1148.98 339.545 1148.52 339.709C1148.06 339.861 1147.65 340.072 1147.27 340.342C1146.9 340.611 1146.57 340.928 1146.3 341.291C1146.04 341.654 1145.86 342.041 1145.78 342.451V354H1138.18V335.033ZM1165.92 335.033H1173.52V354H1165.92V335.033ZM1169.74 331.131C1169.07 331.131 1168.44 331.061 1167.86 330.92C1167.27 330.779 1166.76 330.586 1166.33 330.34C1165.9 330.094 1165.56 329.795 1165.31 329.443C1165.06 329.092 1164.94 328.705 1164.94 328.283C1164.94 327.814 1165.06 327.404 1165.31 327.053C1165.55 326.689 1165.89 326.391 1166.33 326.156C1166.76 325.922 1167.27 325.746 1167.86 325.629C1168.44 325.512 1169.07 325.453 1169.75 325.453C1170.43 325.453 1171.07 325.512 1171.65 325.629C1172.25 325.746 1172.77 325.922 1173.2 326.156C1173.63 326.391 1173.97 326.689 1174.22 327.053C1174.46 327.404 1174.59 327.814 1174.59 328.283C1174.59 328.705 1174.46 329.092 1174.2 329.443C1173.96 329.795 1173.62 330.094 1173.18 330.34C1172.75 330.586 1172.23 330.779 1171.63 330.92C1171.05 331.061 1170.42 331.131 1169.74 331.131ZM1187.74 354H1180.14V339.463H1177.12V335.033H1180.11C1180.11 333.592 1180.3 332.338 1180.69 331.271C1181.07 330.193 1181.62 329.297 1182.34 328.582C1183.05 327.867 1183.92 327.334 1184.92 326.982C1185.94 326.619 1187.09 326.438 1188.35 326.438C1189.38 326.438 1190.34 326.549 1191.22 326.771C1192.1 326.994 1192.9 327.258 1193.64 327.562L1193.08 332.08C1192.4 331.916 1191.83 331.781 1191.38 331.676C1190.93 331.559 1190.5 331.5 1190.07 331.5C1189.54 331.5 1189.11 331.6 1188.79 331.799C1188.49 331.998 1188.25 332.262 1188.09 332.59C1187.94 332.918 1187.84 333.299 1187.79 333.732C1187.75 334.154 1187.74 334.588 1187.74 335.033H1193.04C1192.88 335.807 1192.75 336.551 1192.66 337.266C1192.56 337.98 1192.52 338.713 1192.52 339.463H1187.74V354ZM1196.19 335.033H1203.79V354H1196.19V335.033ZM1200.01 331.131C1199.34 331.131 1198.71 331.061 1198.12 330.92C1197.54 330.779 1197.03 330.586 1196.6 330.34C1196.17 330.094 1195.83 329.795 1195.58 329.443C1195.33 329.092 1195.21 328.705 1195.21 328.283C1195.21 327.814 1195.33 327.404 1195.58 327.053C1195.82 326.689 1196.16 326.391 1196.6 326.156C1197.03 325.922 1197.54 325.746 1198.12 325.629C1198.71 325.512 1199.34 325.453 1200.02 325.453C1200.7 325.453 1201.34 325.512 1201.92 325.629C1202.52 325.746 1203.04 325.922 1203.47 326.156C1203.9 326.391 1204.24 326.689 1204.49 327.053C1204.73 327.404 1204.86 327.814 1204.86 328.283C1204.86 328.705 1204.73 329.092 1204.47 329.443C1204.22 329.795 1203.88 330.094 1203.45 330.34C1203.02 330.586 1202.5 330.779 1201.9 330.92C1201.32 331.061 1200.69 331.131 1200.01 331.131ZM1227.06 353.244C1225.96 353.607 1224.77 353.906 1223.49 354.141C1222.21 354.387 1220.88 354.51 1219.5 354.51C1217.99 354.51 1216.55 354.311 1215.18 353.912C1213.8 353.514 1212.6 352.893 1211.55 352.049C1210.51 351.205 1209.68 350.139 1209.06 348.85C1208.45 347.549 1208.14 346.002 1208.14 344.209C1208.14 343.189 1208.3 342.246 1208.62 341.379C1208.94 340.5 1209.36 339.703 1209.9 338.988C1210.45 338.273 1211.09 337.641 1211.82 337.09C1212.56 336.539 1213.34 336.076 1214.17 335.701C1215.02 335.326 1215.88 335.045 1216.78 334.857C1217.67 334.658 1218.54 334.559 1219.39 334.559C1220.74 334.559 1221.93 334.711 1222.96 335.016C1223.99 335.309 1224.85 335.707 1225.53 336.211C1226.22 336.715 1226.74 337.301 1227.09 337.969C1227.45 338.637 1227.62 339.346 1227.62 340.096C1227.62 341.01 1227.46 341.789 1227.15 342.434C1226.84 343.078 1226.43 343.623 1225.9 344.068C1225.38 344.502 1224.78 344.848 1224.09 345.105C1223.41 345.352 1222.69 345.545 1221.93 345.686C1221.16 345.814 1220.38 345.896 1219.59 345.932C1218.8 345.967 1218.05 345.984 1217.34 345.984C1217.09 345.984 1216.85 345.984 1216.62 345.984C1216.39 345.973 1216.17 345.967 1215.95 345.967C1216.04 346.635 1216.22 347.197 1216.49 347.654C1216.78 348.111 1217.12 348.486 1217.53 348.779C1217.95 349.061 1218.43 349.266 1218.97 349.395C1219.52 349.512 1220.11 349.57 1220.73 349.57C1221.2 349.57 1221.7 349.535 1222.22 349.465C1222.76 349.395 1223.3 349.301 1223.84 349.184C1224.39 349.055 1224.94 348.914 1225.48 348.762C1226.03 348.598 1226.55 348.428 1227.06 348.252V353.244ZM1215.79 343.26C1216.07 343.248 1216.43 343.23 1216.86 343.207C1217.31 343.184 1217.78 343.143 1218.27 343.084C1218.76 343.025 1219.25 342.943 1219.75 342.838C1220.24 342.732 1220.68 342.598 1221.08 342.434C1221.48 342.27 1221.8 342.064 1222.05 341.818C1222.29 341.572 1222.42 341.273 1222.42 340.922C1222.42 340.324 1222.18 339.85 1221.7 339.498C1221.23 339.135 1220.57 338.953 1219.73 338.953C1219.34 338.953 1218.93 339.012 1218.48 339.129C1218.04 339.234 1217.62 339.445 1217.23 339.762C1216.85 340.078 1216.52 340.518 1216.25 341.08C1215.98 341.643 1215.83 342.369 1215.79 343.26ZM1232.3 335.033H1239.52C1239.5 335.338 1239.48 335.678 1239.47 336.053C1239.46 336.416 1239.45 336.803 1239.45 337.213C1239.45 337.611 1239.45 338.016 1239.45 338.426C1239.45 338.836 1239.45 339.229 1239.45 339.604C1239.69 339.029 1239.99 338.443 1240.37 337.846C1240.74 337.236 1241.18 336.691 1241.68 336.211C1242.2 335.73 1242.78 335.338 1243.42 335.033C1244.08 334.717 1244.81 334.559 1245.62 334.559C1245.77 334.559 1245.94 334.57 1246.11 334.594C1246.3 334.605 1246.48 334.629 1246.66 334.664C1246.83 334.699 1247 334.746 1247.15 334.805C1247.31 334.852 1247.45 334.91 1247.55 334.98L1246.94 342.223C1246.41 342.023 1245.86 341.877 1245.27 341.783C1244.68 341.678 1244.17 341.625 1243.74 341.625C1243.14 341.625 1242.62 341.701 1242.16 341.854C1241.71 341.994 1241.33 342.182 1241.02 342.416C1240.7 342.65 1240.45 342.908 1240.26 343.189C1240.08 343.471 1239.96 343.746 1239.89 344.016V354H1232.3V335.033Z" fill="white"/>
</g>
</g>
<g filter="url(#filter16_d)">
<path d="M496.5 33C496.5 15.0507 511.051 0.5 529 0.5H801C818.949 0.5 833.5 15.0507 833.5 33V138C833.5 155.949 818.949 170.5 801 170.5H529C511.051 170.5 496.5 155.949 496.5 138V33Z" fill="#BED8FF" stroke="white"/>
<g filter="url(#filter17_d)">
<path d="M549.254 101H541.748V83.0527L537.811 83.7734V78.957C538.596 78.7109 539.457 78.3711 540.395 77.9375C541.332 77.5039 542.434 76.9062 543.699 76.1445H549.254V101ZM561.647 101.51C560.861 101.51 560.205 101.398 559.678 101.176C559.162 100.953 558.723 100.66 558.359 100.297C557.996 99.9219 557.715 99.5 557.516 99.0312C557.328 98.5508 557.234 98.0645 557.234 97.5723C557.234 97.1035 557.334 96.6348 557.533 96.166C557.733 95.6973 558.02 95.2754 558.395 94.9004C558.77 94.5254 559.215 94.2207 559.731 93.9863C560.258 93.752 560.902 93.6348 561.664 93.6348C562.449 93.6348 563.117 93.752 563.668 93.9863C564.219 94.2207 564.688 94.5254 565.074 94.9004C565.473 95.2754 565.777 95.6973 565.988 96.166C566.199 96.623 566.305 97.0859 566.305 97.5547C566.305 98.0586 566.199 98.5508 565.988 99.0312C565.789 99.5 565.496 99.9219 565.109 100.297C564.734 100.66 564.266 100.953 563.703 101.176C563.152 101.398 562.467 101.51 561.647 101.51ZM602.615 82.5957C602.135 82.3848 601.572 82.1738 600.928 81.9629C600.295 81.7402 599.627 81.541 598.924 81.3652C598.232 81.1895 597.529 81.0488 596.814 80.9434C596.1 80.8262 595.426 80.7676 594.793 80.7676C593.691 80.7676 592.83 80.9082 592.209 81.1895C591.588 81.4707 591.277 81.9453 591.277 82.6133C591.277 82.9297 591.383 83.2109 591.594 83.457C591.816 83.6914 592.127 83.9141 592.525 84.125C592.924 84.3242 593.398 84.5234 593.949 84.7227C594.512 84.9102 595.133 85.1094 595.812 85.3203L597.096 85.7246C598.174 86.0527 599.141 86.4512 599.996 86.9199C600.852 87.377 601.572 87.9219 602.158 88.5547C602.756 89.1758 603.213 89.8906 603.529 90.6992C603.846 91.5078 604.004 92.4277 604.004 93.459C604.004 94.666 603.811 95.7676 603.424 96.7637C603.049 97.748 602.457 98.5918 601.648 99.2949C600.84 99.998 599.803 100.543 598.537 100.93C597.283 101.316 595.771 101.51 594.002 101.51C592.432 101.51 590.867 101.381 589.309 101.123C587.762 100.865 586.197 100.414 584.615 99.7695V93.9688C586.127 94.7422 587.592 95.3105 589.01 95.6738C590.439 96.0254 591.846 96.2012 593.229 96.2012C594.365 96.2012 595.191 96.0195 595.707 95.6562C596.234 95.293 596.498 94.7891 596.498 94.1445C596.498 93.7578 596.398 93.4297 596.199 93.1602C596.012 92.8789 595.701 92.6211 595.268 92.3867C594.846 92.1523 594.289 91.918 593.598 91.6836C592.906 91.4375 592.068 91.1621 591.084 90.8574C590.1 90.5645 589.186 90.1953 588.342 89.75C587.51 89.3047 586.789 88.7715 586.18 88.1504C585.57 87.5176 585.09 86.7852 584.738 85.9531C584.398 85.1211 584.229 84.1719 584.229 83.1055C584.229 82.0039 584.422 80.9961 584.809 80.082C585.195 79.168 585.787 78.3887 586.584 77.7441C587.381 77.0879 588.389 76.5781 589.607 76.2148C590.838 75.8516 592.297 75.6699 593.984 75.6699C594.652 75.6699 595.361 75.6992 596.111 75.7578C596.861 75.8164 597.623 75.9043 598.396 76.0215C599.182 76.1387 599.955 76.291 600.717 76.4785C601.479 76.666 602.199 76.8887 602.879 77.1465L602.615 82.5957ZM613.514 81.3125C613.514 80.9141 613.438 80.5742 613.285 80.293C613.133 80.0117 612.881 79.7832 612.529 79.6074C612.178 79.4199 611.715 79.2852 611.141 79.2031C610.566 79.1094 609.857 79.0625 609.014 79.0625V75.6875H610.701C611.58 75.6875 612.453 75.793 613.32 76.0039C614.188 76.2148 614.967 76.5957 615.658 77.1465C616.361 77.6855 616.93 78.4355 617.363 79.3965C617.797 80.3457 618.014 81.5586 618.014 83.0352C618.014 84.8516 617.609 86.2402 616.801 87.2012C615.992 88.1504 614.785 88.625 613.18 88.625C612.383 88.625 611.686 88.502 611.088 88.2559C610.502 87.998 610.01 87.6699 609.611 87.2715C609.225 86.8613 608.932 86.4043 608.732 85.9004C608.545 85.3965 608.451 84.8984 608.451 84.4062C608.451 83.9258 608.533 83.4629 608.697 83.0176C608.861 82.5723 609.09 82.1855 609.383 81.8574C609.676 81.5176 610.016 81.248 610.402 81.0488C610.801 80.8496 611.229 80.75 611.686 80.75C612.283 80.75 612.893 80.9375 613.514 81.3125ZM622.391 82.0332H629.984V101H622.391V82.0332ZM626.205 78.1309C625.537 78.1309 624.91 78.0605 624.324 77.9199C623.738 77.7793 623.229 77.5859 622.795 77.3398C622.373 77.0938 622.033 76.7949 621.775 76.4434C621.529 76.0918 621.406 75.7051 621.406 75.2832C621.406 74.8145 621.529 74.4043 621.775 74.0527C622.021 73.6895 622.361 73.3906 622.795 73.1562C623.229 72.9219 623.738 72.7461 624.324 72.6289C624.91 72.5117 625.543 72.4531 626.223 72.4531C626.902 72.4531 627.535 72.5117 628.121 72.6289C628.719 72.7461 629.234 72.9219 629.668 73.1562C630.102 73.3906 630.441 73.6895 630.688 74.0527C630.934 74.4043 631.057 74.8145 631.057 75.2832C631.057 75.7051 630.928 76.0918 630.67 76.4434C630.424 76.7949 630.084 77.0938 629.65 77.3398C629.217 77.5859 628.701 77.7793 628.104 77.9199C627.518 78.0605 626.885 78.1309 626.205 78.1309ZM635.68 82.0332H643.273C643.203 82.4316 643.133 82.9473 643.062 83.5801C642.992 84.2012 642.957 84.8457 642.957 85.5137C643.355 84.916 643.854 84.377 644.451 83.8965C645.061 83.4043 645.729 82.9883 646.455 82.6484C647.182 82.2969 647.949 82.0273 648.758 81.8398C649.578 81.6523 650.404 81.5586 651.236 81.5586C652.15 81.5586 653.018 81.6992 653.838 81.9805C654.658 82.25 655.379 82.6836 656 83.2812C656.621 83.8789 657.113 84.6582 657.477 85.6191C657.84 86.5684 658.021 87.7227 658.021 89.082V101H650.428V90.1895C650.428 89.4629 650.352 88.8594 650.199 88.3789C650.047 87.8984 649.836 87.5176 649.566 87.2363C649.297 86.9551 648.975 86.7559 648.6 86.6387C648.236 86.5215 647.838 86.4629 647.404 86.4629C646.936 86.4629 646.473 86.5449 646.016 86.709C645.559 86.8613 645.143 87.0723 644.768 87.3418C644.393 87.6113 644.07 87.9277 643.801 88.291C643.531 88.6543 643.355 89.041 643.273 89.4512V101H635.68V82.0332ZM671.838 101H664.244V86.4629H661.221V82.0332H664.209C664.209 80.5918 664.402 79.3379 664.789 78.2715C665.176 77.1934 665.727 76.2969 666.441 75.582C667.156 74.8672 668.018 74.334 669.025 73.9824C670.045 73.6191 671.188 73.4375 672.453 73.4375C673.484 73.4375 674.439 73.5488 675.318 73.7715C676.197 73.9941 677.006 74.2578 677.744 74.5625L677.182 79.0801C676.502 78.916 675.934 78.7812 675.477 78.6758C675.031 78.5586 674.598 78.5 674.176 78.5C673.637 78.5 673.209 78.5996 672.893 78.7988C672.588 78.998 672.354 79.2617 672.189 79.5898C672.037 79.918 671.938 80.2988 671.891 80.7324C671.855 81.1543 671.838 81.5879 671.838 82.0332H677.146C676.982 82.8066 676.854 83.5508 676.76 84.2656C676.666 84.9805 676.619 85.7129 676.619 86.4629H671.838V101ZM689.82 101.51C688.438 101.51 687.207 101.381 686.129 101.123C685.051 100.865 684.107 100.508 683.299 100.051C682.49 99.5938 681.799 99.0547 681.225 98.4336C680.662 97.8008 680.205 97.1152 679.854 96.377C679.502 95.6387 679.244 94.8594 679.08 94.0391C678.928 93.2188 678.852 92.3867 678.852 91.543C678.852 90.7109 678.928 89.8906 679.08 89.082C679.244 88.2617 679.502 87.4824 679.854 86.7441C680.205 85.9941 680.662 85.3086 681.225 84.6875C681.787 84.0547 682.473 83.5098 683.281 83.0527C684.102 82.584 685.051 82.2207 686.129 81.9629C687.207 81.6934 688.438 81.5586 689.82 81.5586C691.203 81.5586 692.434 81.6934 693.512 81.9629C694.59 82.2207 695.533 82.584 696.342 83.0527C697.162 83.5098 697.854 84.0547 698.416 84.6875C698.979 85.3086 699.436 85.9941 699.787 86.7441C700.139 87.4824 700.391 88.2617 700.543 89.082C700.707 89.8906 700.789 90.7109 700.789 91.543C700.789 92.3867 700.707 93.2188 700.543 94.0391C700.391 94.8594 700.139 95.6387 699.787 96.377C699.436 97.1152 698.973 97.8008 698.398 98.4336C697.836 99.0547 697.15 99.5938 696.342 100.051C695.533 100.508 694.59 100.865 693.512 101.123C692.434 101.381 691.203 101.51 689.82 101.51ZM686.445 91.543C686.445 92.1758 686.504 92.7969 686.621 93.4062C686.738 94.0039 686.926 94.543 687.184 95.0234C687.453 95.4922 687.799 95.873 688.221 96.166C688.654 96.4473 689.188 96.5879 689.82 96.5879C690.453 96.5879 690.98 96.4473 691.402 96.166C691.836 95.873 692.182 95.4922 692.439 95.0234C692.709 94.543 692.902 94.0039 693.02 93.4062C693.137 92.7969 693.195 92.1758 693.195 91.543C693.195 90.9102 693.137 90.2949 693.02 89.6973C692.902 89.0879 692.709 88.5488 692.439 88.0801C692.182 87.5996 691.836 87.2129 691.402 86.9199C690.98 86.627 690.453 86.4805 689.82 86.4805C689.188 86.4805 688.654 86.627 688.221 86.9199C687.799 87.2129 687.453 87.5996 687.184 88.0801C686.926 88.5488 686.738 89.0879 686.621 89.6973C686.504 90.2949 686.445 90.9102 686.445 91.543ZM704.938 82.0332H712.162C712.139 82.3379 712.121 82.6777 712.109 83.0527C712.098 83.416 712.092 83.8027 712.092 84.2129C712.092 84.6113 712.092 85.0156 712.092 85.4258C712.092 85.8359 712.092 86.2285 712.092 86.6035C712.326 86.0293 712.631 85.4434 713.006 84.8457C713.381 84.2363 713.82 83.6914 714.324 83.2109C714.84 82.7305 715.42 82.3379 716.064 82.0332C716.721 81.7168 717.453 81.5586 718.262 81.5586C718.414 81.5586 718.578 81.5703 718.754 81.5938C718.941 81.6055 719.123 81.6289 719.299 81.6641C719.475 81.6992 719.639 81.7461 719.791 81.8047C719.955 81.8516 720.09 81.9102 720.195 81.9805L719.58 89.2227C719.053 89.0234 718.496 88.877 717.91 88.7832C717.324 88.6777 716.814 88.625 716.381 88.625C715.783 88.625 715.256 88.7012 714.799 88.8535C714.354 88.9941 713.973 89.1816 713.656 89.416C713.34 89.6504 713.088 89.9082 712.9 90.1895C712.725 90.4707 712.602 90.7461 712.531 91.0156V101H704.938V82.0332ZM723.359 82.0332H731.041C730.936 82.373 730.848 82.6895 730.777 82.9824C730.707 83.2637 730.654 83.5449 730.619 83.8262C730.584 84.1074 730.555 84.3945 730.531 84.6875C730.52 84.9688 730.514 85.2734 730.514 85.6016C730.83 85.0742 731.24 84.5645 731.744 84.0723C732.248 83.5801 732.811 83.1523 733.432 82.7891C734.064 82.4141 734.732 82.1152 735.436 81.8926C736.15 81.6699 736.871 81.5586 737.598 81.5586C738.172 81.5586 738.734 81.6406 739.285 81.8047C739.848 81.9688 740.381 82.2148 740.885 82.543C741.389 82.8711 741.852 83.2754 742.273 83.7559C742.695 84.2363 743.059 84.7988 743.363 85.4434C743.727 84.8809 744.195 84.3652 744.77 83.8965C745.355 83.416 746 83.0059 746.703 82.666C747.406 82.3145 748.15 82.0449 748.936 81.8574C749.732 81.6582 750.523 81.5586 751.309 81.5586C752.574 81.5586 753.646 81.7402 754.525 82.1035C755.416 82.4668 756.131 82.9824 756.67 83.6504C757.221 84.3184 757.619 85.1211 757.865 86.0586C758.111 86.9961 758.234 88.0332 758.234 89.1699V101H750.641V90.2773C750.641 89.9375 750.6 89.5508 750.518 89.1172C750.447 88.6719 750.307 88.2559 750.096 87.8691C749.885 87.4707 749.592 87.1367 749.217 86.8672C748.854 86.5977 748.373 86.4629 747.775 86.4629C747.365 86.4629 746.979 86.5625 746.615 86.7617C746.252 86.9609 745.93 87.2246 745.648 87.5527C745.367 87.8809 745.145 88.2559 744.98 88.6777C744.816 89.0996 744.734 89.5332 744.734 89.9785V101H737.141V90.2773C737.141 89.7969 737.094 89.3281 737 88.8711C736.918 88.4141 736.771 88.0098 736.561 87.6582C736.35 87.2949 736.062 87.0078 735.699 86.7969C735.336 86.5742 734.879 86.4629 734.328 86.4629C733.941 86.4629 733.543 86.5391 733.133 86.6914C732.734 86.832 732.371 87.0312 732.043 87.2891C731.727 87.5352 731.463 87.834 731.252 88.1855C731.053 88.5371 730.953 88.918 730.953 89.3281V101H723.359V82.0332ZM781.156 100.244C780.055 100.607 778.865 100.906 777.588 101.141C776.311 101.387 774.98 101.51 773.598 101.51C772.086 101.51 770.645 101.311 769.273 100.912C767.902 100.514 766.695 99.8926 765.652 99.0488C764.609 98.2051 763.777 97.1387 763.156 95.8496C762.547 94.5488 762.242 93.002 762.242 91.209C762.242 90.1895 762.4 89.2461 762.717 88.3789C763.033 87.5 763.461 86.7031 764 85.9883C764.551 85.2734 765.189 84.6406 765.916 84.0898C766.654 83.5391 767.439 83.0762 768.271 82.7012C769.115 82.3262 769.982 82.0449 770.873 81.8574C771.764 81.6582 772.637 81.5586 773.492 81.5586C774.84 81.5586 776.029 81.7109 777.061 82.0156C778.092 82.3086 778.947 82.707 779.627 83.2109C780.318 83.7148 780.84 84.3008 781.191 84.9688C781.543 85.6367 781.719 86.3457 781.719 87.0957C781.719 88.0098 781.561 88.7891 781.244 89.4336C780.939 90.0781 780.523 90.623 779.996 91.0684C779.48 91.502 778.877 91.8477 778.186 92.1055C777.506 92.3516 776.785 92.5449 776.023 92.6855C775.262 92.8145 774.482 92.8965 773.686 92.9316C772.9 92.9668 772.15 92.9844 771.436 92.9844C771.189 92.9844 770.949 92.9844 770.715 92.9844C770.492 92.9727 770.27 92.9668 770.047 92.9668C770.141 93.6348 770.322 94.1973 770.592 94.6543C770.873 95.1113 771.219 95.4863 771.629 95.7793C772.051 96.0605 772.531 96.2656 773.07 96.3945C773.621 96.5117 774.207 96.5703 774.828 96.5703C775.297 96.5703 775.795 96.5352 776.322 96.4648C776.861 96.3945 777.4 96.3008 777.939 96.1836C778.49 96.0547 779.035 95.9141 779.574 95.7617C780.125 95.5977 780.652 95.4277 781.156 95.252V100.244ZM769.889 90.2598C770.17 90.248 770.527 90.2305 770.961 90.207C771.406 90.1836 771.875 90.1426 772.367 90.084C772.859 90.0254 773.352 89.9434 773.844 89.8379C774.336 89.7324 774.781 89.5977 775.18 89.4336C775.578 89.2695 775.9 89.0645 776.146 88.8184C776.393 88.5723 776.516 88.2734 776.516 87.9219C776.516 87.3242 776.275 86.8496 775.795 86.498C775.326 86.1348 774.67 85.9531 773.826 85.9531C773.439 85.9531 773.023 86.0117 772.578 86.1289C772.133 86.2344 771.717 86.4453 771.33 86.7617C770.943 87.0781 770.615 87.5176 770.346 88.0801C770.076 88.6426 769.924 89.3691 769.889 90.2598ZM786.395 82.0332H793.619C793.596 82.3379 793.578 82.6777 793.566 83.0527C793.555 83.416 793.549 83.8027 793.549 84.2129C793.549 84.6113 793.549 85.0156 793.549 85.4258C793.549 85.8359 793.549 86.2285 793.549 86.6035C793.783 86.0293 794.088 85.4434 794.463 84.8457C794.838 84.2363 795.277 83.6914 795.781 83.2109C796.297 82.7305 796.877 82.3379 797.521 82.0332C798.178 81.7168 798.91 81.5586 799.719 81.5586C799.871 81.5586 800.035 81.5703 800.211 81.5938C800.398 81.6055 800.58 81.6289 800.756 81.6641C800.932 81.6992 801.096 81.7461 801.248 81.8047C801.412 81.8516 801.547 81.9102 801.652 81.9805L801.037 89.2227C800.51 89.0234 799.953 88.877 799.367 88.7832C798.781 88.6777 798.271 88.625 797.838 88.625C797.24 88.625 796.713 88.7012 796.256 88.8535C795.811 88.9941 795.43 89.1816 795.113 89.416C794.797 89.6504 794.545 89.9082 794.357 90.1895C794.182 90.4707 794.059 90.7461 793.988 91.0156V101H786.395V82.0332Z" fill="white"/>
</g>
</g>
<defs>
<filter id="filter0_d" x="321.496" y="735.223" width="184.029" height="143.717" filterUnits="userSpaceOnUse" color-interpolation-filters="sRGB">
<feFlood flood-opacity="0" result="BackgroundImageFix"/>
<feColorMatrix in="SourceAlpha" type="matrix" values="0 0 0 0 0 0 0 0 0 0 0 0 0 0 0 0 0 0 127 0"/>
<feOffset dy="4"/>
<feGaussianBlur stdDeviation="2"/>
<feColorMatrix type="matrix" values="0 0 0 0 0 0 0 0 0 0 0 0 0 0 0 0 0 0 0.25 0"/>
<feBlend mode="normal" in2="BackgroundImageFix" result="effect1_dropShadow"/>
<feBlend mode="normal" in="SourceGraphic" in2="effect1_dropShadow" result="shape"/>
</filter>
<filter id="filter1_d" x="340.834" y="147.055" width="175.341" height="136.103" filterUnits="userSpaceOnUse" color-interpolation-filters="sRGB">
<feFlood flood-opacity="0" result="BackgroundImageFix"/>
<feColorMatrix in="SourceAlpha" type="matrix" values="0 0 0 0 0 0 0 0 0 0 0 0 0 0 0 0 0 0 127 0"/>
<feOffset dy="4"/>
<feGaussianBlur stdDeviation="2"/>
<feColorMatrix type="matrix" values="0 0 0 0 0 0 0 0 0 0 0 0 0 0 0 0 0 0 0.25 0"/>
<feBlend mode="normal" in2="BackgroundImageFix" result="effect1_dropShadow"/>
<feBlend mode="normal" in="SourceGraphic" in2="effect1_dropShadow" result="shape"/>
</filter>
<filter id="filter2_d" x="143.226" y="432.5" width="59.5477" height="159.5" filterUnits="userSpaceOnUse" color-interpolation-filters="sRGB">
<feFlood flood-opacity="0" result="BackgroundImageFix"/>
<feColorMatrix in="SourceAlpha" type="matrix" values="0 0 0 0 0 0 0 0 0 0 0 0 0 0 0 0 0 0 127 0"/>
<feOffset dy="4"/>
<feGaussianBlur stdDeviation="2"/>
<feColorMatrix type="matrix" values="0 0 0 0 0 0 0 0 0 0 0 0 0 0 0 0 0 0 0.25 0"/>
<feBlend mode="normal" in2="BackgroundImageFix" result="effect1_dropShadow"/>
<feBlend mode="normal" in="SourceGraphic" in2="effect1_dropShadow" result="shape"/>
</filter>
<filter id="filter3_d" x="806.825" y="736.843" width="175.341" height="136.103" filterUnits="userSpaceOnUse" color-interpolation-filters="sRGB">
<feFlood flood-opacity="0" result="BackgroundImageFix"/>
<feColorMatrix in="SourceAlpha" type="matrix" values="0 0 0 0 0 0 0 0 0 0 0 0 0 0 0 0 0 0 127 0"/>
<feOffset dy="4"/>
<feGaussianBlur stdDeviation="2"/>
<feColorMatrix type="matrix" values="0 0 0 0 0 0 0 0 0 0 0 0 0 0 0 0 0 0 0.25 0"/>
<feBlend mode="normal" in2="BackgroundImageFix" result="effect1_dropShadow"/>
<feBlend mode="normal" in="SourceGraphic" in2="effect1_dropShadow" result="shape"/>
</filter>
<filter id="filter4_d" x="1104.23" y="434" width="59.5477" height="159.5" filterUnits="userSpaceOnUse" color-interpolation-filters="sRGB">
<feFlood flood-opacity="0" result="BackgroundImageFix"/>
<feColorMatrix in="SourceAlpha" type="matrix" values="0 0 0 0 0 0 0 0 0 0 0 0 0 0 0 0 0 0 127 0"/>
<feOffset dy="4"/>
<feGaussianBlur stdDeviation="2"/>
<feColorMatrix type="matrix" values="0 0 0 0 0 0 0 0 0 0 0 0 0 0 0 0 0 0 0.25 0"/>
<feBlend mode="normal" in2="BackgroundImageFix" result="effect1_dropShadow"/>
<feBlend mode="normal" in="SourceGraphic" in2="effect1_dropShadow" result="shape"/>
</filter>
<filter id="filter5_d" x="809.834" y="148.843" width="175.341" height="136.103" filterUnits="userSpaceOnUse" color-interpolation-filters="sRGB">
<feFlood flood-opacity="0" result="BackgroundImageFix"/>
<feColorMatrix in="SourceAlpha" type="matrix" values="0 0 0 0 0 0 0 0 0 0 0 0 0 0 0 0 0 0 127 0"/>
<feOffset dy="4"/>
<feGaussianBlur stdDeviation="2"/>
<feColorMatrix type="matrix" values="0 0 0 0 0 0 0 0 0 0 0 0 0 0 0 0 0 0 0.25 0"/>
<feBlend mode="normal" in2="BackgroundImageFix" result="effect1_dropShadow"/>
<feBlend mode="normal" in="SourceGraphic" in2="effect1_dropShadow" result="shape"/>
</filter>
<filter id="filter6_d" x="16" y="253" width="346" height="182" filterUnits="userSpaceOnUse" color-interpolation-filters="sRGB">
<feFlood flood-opacity="0" result="BackgroundImageFix"/>
<feColorMatrix in="SourceAlpha" type="matrix" values="0 0 0 0 0 0 0 0 0 0 0 0 0 0 0 0 0 0 127 0"/>
<feOffset dy="7"/>
<feGaussianBlur stdDeviation="2"/>
<feColorMatrix type="matrix" values="0 0 0 0 0.983333 0 0 0 0 0.731108 0 0 0 0 0.651458 0 0 0 1 0"/>
<feBlend mode="normal" in2="BackgroundImageFix" result="effect1_dropShadow"/>
<feBlend mode="normal" in="SourceGraphic" in2="effect1_dropShadow" result="shape"/>
</filter>
<filter id="filter7_d" x="84.752" y="315.838" width="210.061" height="46.6719" filterUnits="userSpaceOnUse" color-interpolation-filters="sRGB">
<feFlood flood-opacity="0" result="BackgroundImageFix"/>
<feColorMatrix in="SourceAlpha" type="matrix" values="0 0 0 0 0 0 0 0 0 0 0 0 0 0 0 0 0 0 127 0"/>
<feOffset dy="4"/>
<feGaussianBlur stdDeviation="2"/>
<feColorMatrix type="matrix" values="0 0 0 0 0 0 0 0 0 0 0 0 0 0 0 0 0 0 0.25 0"/>
<feBlend mode="normal" in2="BackgroundImageFix" result="effect1_dropShadow"/>
<feBlend mode="normal" in="SourceGraphic" in2="effect1_dropShadow" result="shape"/>
</filter>
<filter id="filter8_d" x="0" y="588" width="346" height="182" filterUnits="userSpaceOnUse" color-interpolation-filters="sRGB">
<feFlood flood-opacity="0" result="BackgroundImageFix"/>
<feColorMatrix in="SourceAlpha" type="matrix" values="0 0 0 0 0 0 0 0 0 0 0 0 0 0 0 0 0 0 127 0"/>
<feOffset dy="7"/>
<feGaussianBlur stdDeviation="2"/>
<feColorMatrix type="matrix" values="0 0 0 0 0.983333 0 0 0 0 0.651458 0 0 0 0 0.751021 0 0 0 1 0"/>
<feBlend mode="normal" in2="BackgroundImageFix" result="effect1_dropShadow"/>
<feBlend mode="normal" in="SourceGraphic" in2="effect1_dropShadow" result="shape"/>
</filter>
<filter id="filter9_d" x="47.7988" y="657.5" width="252.459" height="40.0273" filterUnits="userSpaceOnUse" color-interpolation-filters="sRGB">
<feFlood flood-opacity="0" result="BackgroundImageFix"/>
<feColorMatrix in="SourceAlpha" type="matrix" values="0 0 0 0 0 0 0 0 0 0 0 0 0 0 0 0 0 0 127 0"/>
<feOffset dy="4"/>
<feGaussianBlur stdDeviation="2"/>
<feColorMatrix type="matrix" values="0 0 0 0 0 0 0 0 0 0 0 0 0 0 0 0 0 0 0.25 0"/>
<feBlend mode="normal" in2="BackgroundImageFix" result="effect1_dropShadow"/>
<feBlend mode="normal" in="SourceGraphic" in2="effect1_dropShadow" result="shape"/>
</filter>
<filter id="filter10_d" x="492" y="841" width="346" height="182" filterUnits="userSpaceOnUse" color-interpolation-filters="sRGB">
<feFlood flood-opacity="0" result="BackgroundImageFix"/>
<feColorMatrix in="SourceAlpha" type="matrix" values="0 0 0 0 0 0 0 0 0 0 0 0 0 0 0 0 0 0 127 0"/>
<feOffset dy="7"/>
<feGaussianBlur stdDeviation="2"/>
<feColorMatrix type="matrix" values="0 0 0 0 0.897046 0 0 0 0 0.651458 0 0 0 0 0.983333 0 0 0 1 0"/>
<feBlend mode="normal" in2="BackgroundImageFix" result="effect1_dropShadow"/>
<feBlend mode="normal" in="SourceGraphic" in2="effect1_dropShadow" result="shape"/>
</filter>
<filter id="filter11_d" x="555.883" y="909.428" width="219.254" height="41.082" filterUnits="userSpaceOnUse" color-interpolation-filters="sRGB">
<feFlood flood-opacity="0" result="BackgroundImageFix"/>
<feColorMatrix in="SourceAlpha" type="matrix" values="0 0 0 0 0 0 0 0 0 0 0 0 0 0 0 0 0 0 127 0"/>
<feOffset dy="4"/>
<feGaussianBlur stdDeviation="2"/>
<feColorMatrix type="matrix" values="0 0 0 0 0 0 0 0 0 0 0 0 0 0 0 0 0 0 0.25 0"/>
<feBlend mode="normal" in2="BackgroundImageFix" result="effect1_dropShadow"/>
<feBlend mode="normal" in="SourceGraphic" in2="effect1_dropShadow" result="shape"/>
</filter>
<filter id="filter12_d" x="961" y="588" width="346" height="182" filterUnits="userSpaceOnUse" color-interpolation-filters="sRGB">
<feFlood flood-opacity="0" result="BackgroundImageFix"/>
<feColorMatrix in="SourceAlpha" type="matrix" values="0 0 0 0 0 0 0 0 0 0 0 0 0 0 0 0 0 0 127 0"/>
<feOffset dy="7"/>
<feGaussianBlur stdDeviation="2"/>
<feColorMatrix type="matrix" values="0 0 0 0 0.817396 0 0 0 0 0.651458 0 0 0 0 0.983333 0 0 0 1 0"/>
<feBlend mode="normal" in2="BackgroundImageFix" result="effect1_dropShadow"/>
<feBlend mode="normal" in="SourceGraphic" in2="effect1_dropShadow" result="shape"/>
</filter>
<filter id="filter13_d" x="1030.09" y="656.428" width="209.568" height="41.082" filterUnits="userSpaceOnUse" color-interpolation-filters="sRGB">
<feFlood flood-opacity="0" result="BackgroundImageFix"/>
<feColorMatrix in="SourceAlpha" type="matrix" values="0 0 0 0 0 0 0 0 0 0 0 0 0 0 0 0 0 0 127 0"/>
<feOffset dy="4"/>
<feGaussianBlur stdDeviation="2"/>
<feColorMatrix type="matrix" values="0 0 0 0 0 0 0 0 0 0 0 0 0 0 0 0 0 0 0.25 0"/>
<feBlend mode="normal" in2="BackgroundImageFix" result="effect1_dropShadow"/>
<feBlend mode="normal" in="SourceGraphic" in2="effect1_dropShadow" result="shape"/>
</filter>
<filter id="filter14_d" x="961" y="253" width="346" height="182" filterUnits="userSpaceOnUse" color-interpolation-filters="sRGB">
<feFlood flood-opacity="0" result="BackgroundImageFix"/>
<feColorMatrix in="SourceAlpha" type="matrix" values="0 0 0 0 0 0 0 0 0 0 0 0 0 0 0 0 0 0 127 0"/>
<feOffset dy="7"/>
<feGaussianBlur stdDeviation="2"/>
<feColorMatrix type="matrix" values="0 0 0 0 0.717833 0 0 0 0 0.651458 0 0 0 0 0.983333 0 0 0 1 0"/>
<feBlend mode="normal" in2="BackgroundImageFix" result="effect1_dropShadow"/>
<feBlend mode="normal" in="SourceGraphic" in2="effect1_dropShadow" result="shape"/>
</filter>
<filter id="filter15_d" x="1018.57" y="325.453" width="232.982" height="37.0566" filterUnits="userSpaceOnUse" color-interpolation-filters="sRGB">
<feFlood flood-opacity="0" result="BackgroundImageFix"/>
<feColorMatrix in="SourceAlpha" type="matrix" values="0 0 0 0 0 0 0 0 0 0 0 0 0 0 0 0 0 0 127 0"/>
<feOffset dy="4"/>
<feGaussianBlur stdDeviation="2"/>
<feColorMatrix type="matrix" values="0 0 0 0 0 0 0 0 0 0 0 0 0 0 0 0 0 0 0.25 0"/>
<feBlend mode="normal" in2="BackgroundImageFix" result="effect1_dropShadow"/>
<feBlend mode="normal" in="SourceGraphic" in2="effect1_dropShadow" result="shape"/>
</filter>
<filter id="filter16_d" x="492" y="0" width="346" height="182" filterUnits="userSpaceOnUse" color-interpolation-filters="sRGB">
<feFlood flood-opacity="0" result="BackgroundImageFix"/>
<feColorMatrix in="SourceAlpha" type="matrix" values="0 0 0 0 0 0 0 0 0 0 0 0 0 0 0 0 0 0 127 0"/>
<feOffset dy="7"/>
<feGaussianBlur stdDeviation="2"/>
<feColorMatrix type="matrix" values="0 0 0 0 0.651458 0 0 0 0 0.724471 0 0 0 0 0.983333 0 0 0 1 0"/>
<feBlend mode="normal" in2="BackgroundImageFix" result="effect1_dropShadow"/>
<feBlend mode="normal" in="SourceGraphic" in2="effect1_dropShadow" result="shape"/>
</filter>
<filter id="filter17_d" x="533.811" y="72.4531" width="271.842" height="37.0566" filterUnits="userSpaceOnUse" color-interpolation-filters="sRGB">
<feFlood flood-opacity="0" result="BackgroundImageFix"/>
<feColorMatrix in="SourceAlpha" type="matrix" values="0 0 0 0 0 0 0 0 0 0 0 0 0 0 0 0 0 0 127 0"/>
<feOffset dy="4"/>
<feGaussianBlur stdDeviation="2"/>
<feColorMatrix type="matrix" values="0 0 0 0 0 0 0 0 0 0 0 0 0 0 0 0 0 0 0.25 0"/>
<feBlend mode="normal" in2="BackgroundImageFix" result="effect1_dropShadow"/>
<feBlend mode="normal" in="SourceGraphic" in2="effect1_dropShadow" result="shape"/>
</filter>
</defs>
</svg>
